3D InterOp IGES (v. 2026 1.0.0), Spatial Corp. Copyright (c) 1999-2020. S      1
1H,,1H;,6HNoname,15Htesla1cell.iges,13HSpatial Corp.,20H3D InterOp ACIS/G      1
IGES,32,38, 6,308,15,6HNoname,1.000,2,2HMM,1,1.000,15H20260320.091445,  G      2
1.0e-06,0.00,5HSoske,6HNoname,11,0,15H20260320.091445;                  G      3
     314       1       0       0       0       0       0       000010001D      1
     314       0       0       1       0       0       0               0D      2
     110       2       0       0       0       0       0       000010001D      3
     110       0       0       1       0       0       0               0D      4
     126       3       0       0       0       0       0       000010001D      5
     126       0       0       9       0       0       0               0D      6
     120      12       0       0       0       0       0       000010001D      7
     120       0       0       1       0       0       0               0D      8
     124      13       0       0       0       0       0       000010001D      9
     124       0       0       1       0       0       0               0D     10
     100      14       0       0       0       0       9       000010001D     11
     100       0       0       1       0       0       0               0D     12
     502      15       0       0       0       0       0       000010001D     13
     502       0       0       9       1       0       0               0D     14
     126      24       0       0       0       0       0       000010001D     15
     126       0       0       8       0       0       0               0D     16
     124      32       0       0       0       0       0       000010001D     17
     124       0       0       1       0       0       0               0D     18
     100      33       0       0       0       0      17       000010001D     19
     100       0       0       1       0       0       0               0D     20
     124      34       0       0       0       0       0       000010001D     21
     124       0       0       1       0       0       0               0D     22
     100      35       0       0       0       0      21       000010001D     23
     100       0       0       1       0       0       0               0D     24
     124      36       0       0       0       0       0       000010001D     25
     124       0       0       1       0       0       0               0D     26
     100      37       0       0       0       0      25       000010001D     27
     100       0       0       1       0       0       0               0D     28
     124      38       0       0       0       0       0       000010001D     29
     124       0       0       1       0       0       0               0D     30
     100      39       0       0       0       0      29       000010001D     31
     100       0       0       1       0       0       0               0D     32
     126      40       0       0       0       0       0       000010001D     33
     126       0       0       9       0       0       0               0D     34
     124      49       0       0       0       0       0       000010001D     35
     124       0       0       1       0       0       0               0D     36
     100      50       0       0       0       0      35       000010001D     37
     100       0       0       1       0       0       0               0D     38
     124      51       0       0       0       0       0       000010001D     39
     124       0       0       1       0       0       0               0D     40
     100      52       0       0       0       0      39       000010001D     41
     100       0       0       1       0       0       0               0D     42
     124      53       0       0       0       0       0       000010001D     43
     124       0       0       1       0       0       0               0D     44
     100      54       0       0       0       0      43       000010001D     45
     100       0       0       1       0       0       0               0D     46
     124      55       0       0       0       0       0       000010001D     47
     124       0       0       1       0       0       0               0D     48
     100      56       0       0       0       0      47       000010001D     49
     100       0       0       1       0       0       0               0D     50
     124      57       0       0       0       0       0       000010001D     51
     124       0       0       1       0       0       0               0D     52
     100      58       0       0       0       0      51       000010001D     53
     100       0       0       1       0       0       0               0D     54
     126      59       0       0       0       0       0       000010001D     55
     126       0       0       9       0       0       0               0D     56
     124      68       0       0       0       0       0       000010001D     57
     124       0       0       1       0       0       0               0D     58
     100      69       0       0       0       0      57       000010001D     59
     100       0       0       1       0       0       0               0D     60
     126      70       0       0       0       0       0       000010001D     61
     126       0       0       8       0       0       0               0D     62
     124      78       0       0       0       0       0       000010001D     63
     124       0       0       1       0       0       0               0D     64
     100      79       0       0       0       0      63       000010001D     65
     100       0       0       1       0       0       0               0D     66
     110      80       0       0       0       0       0       000010001D     67
     110       0       0       1       0       0       0               0D     68
     110      81       0       0       0       0       0       000010001D     69
     110       0       0       1       0       0       0               0D     70
     124      82       0       0       0       0       0       000010001D     71
     124       0       0       1       0       0       0               0D     72
     100      83       0       0       0       0      71       000010001D     73
     100       0       0       1       0       0       0               0D     74
     110      84       0       0       0       0       0       000010001D     75
     110       0       0       2       0       0       0               0D     76
     124      86       0       0       0       0       0       000010001D     77
     124       0       0       1       0       0       0               0D     78
     100      87       0       0       0       0      77       000010001D     79
     100       0       0       1       0       0       0               0D     80
     110      88       0       0       0       0       0       000010001D     81
     110       0       0       2       0       0       0               0D     82
     124      90       0       0       0       0       0       000010001D     83
     124       0       0       1       0       0       0               0D     84
     100      91       0       0       0       0      83       000010001D     85
     100       0       0       1       0       0       0               0D     86
     110      92       0       0       0       0       0       000010001D     87
     110       0       0       2       0       0       0               0D     88
     110      94       0       0       0       0       0       000010001D     89
     110       0       0       2       0       0       0               0D     90
     110      96       0       0       0       0       0       000010001D     91
     110       0       0       1       0       0       0               0D     92
     124      97       0       0       0       0       0       000010001D     93
     124       0       0       1       0       0       0               0D     94
     100      98       0       0       0       0      93       000010001D     95
     100       0       0       1       0       0       0               0D     96
     110      99       0       0       0       0       0       000010001D     97
     110       0       0       1       0       0       0               0D     98
     124     100       0       0       0       0       0       000010001D     99
     124       0       0       1       0       0       0               0D    100
     100     101       0       0       0       0      99       000010001D    101
     100       0       0       1       0       0       0               0D    102
     124     102       0       0       0       0       0       000010001D    103
     124       0       0       1       0       0       0               0D    104
     100     103       0       0       0       0     103       000010001D    105
     100       0       0       1       0       0       0               0D    106
     124     104       0       0       0       0       0       000010001D    107
     124       0       0       1       0       0       0               0D    108
     100     105       0       0       0       0     107       000010001D    109
     100       0       0       1       0       0       0               0D    110
     124     106       0       0       0       0       0       000010001D    111
     124       0       0       1       0       0       0               0D    112
     100     107       0       0       0       0     111       000010001D    113
     100       0       0       1       0       0       0               0D    114
     124     108       0       0       0       0       0       000010001D    115
     124       0       0       1       0       0       0               0D    116
     100     109       0       0       0       0     115       000010001D    117
     100       0       0       1       0       0       0               0D    118
     124     110       0       0       0       0       0       000010001D    119
     124       0       0       1       0       0       0               0D    120
     100     111       0       0       0       0     119       000010001D    121
     100       0       0       1       0       0       0               0D    122
     504     112       0       0       0       0       0       000010001D    123
     504       0       0       8       1       0       0               0D    124
     508     120       0       0       0       0       0       000010001D    125
     508       0       0       1       1       0       0               0D    126
     510     121       0       0       0       0       0       000010001D    127
     510       0       0       1       1       0       0               0D    128
     110     122       0       0       0       0       0       000010001D    129
     110       0       0       1       0       0       0               0D    130
     124     123       0       0       0       0       0       000010001D    131
     124       0       0       1       0       0       0               0D    132
     100     124       0       0       0       0     131       000010001D    133
     100       0       0       1       0       0       0               0D    134
     120     125       0       0       0       0       0       000010001D    135
     120       0       0       1       0       0       0               0D    136
     508     126       0       0       0       0       0       000010001D    137
     508       0       0       1       1       0       0               0D    138
     510     127       0       0       0       0       0       000010001D    139
     510       0       0       1       1       0       0               0D    140
     110     128       0       0       0       0       0       000010001D    141
     110       0       0       1       0       0       0               0D    142
     124     129       0       0       0       0       0       000010001D    143
     124       0       0       1       0       0       0               0D    144
     100     130       0       0       0       0     143       000010001D    145
     100       0       0       1       0       0       0               0D    146
     120     131       0       0       0       0       0       000010001D    147
     120       0       0       1       0       0       0               0D    148
     508     132       0       0       0       0       0       000010001D    149
     508       0       0       1       1       0       0               0D    150
     510     133       0       0       0       0       0       000010001D    151
     510       0       0       1       1       0       0               0D    152
     110     134       0       0       0       0       0       000010001D    153
     110       0       0       1       0       0       0               0D    154
     126     135       0       0       0       0       0       000010001D    155
     126       0       0       9       0       0       0               0D    156
     120     144       0       0       0       0       0       000010001D    157
     120       0       0       1       0       0       0               0D    158
     508     145       0       0       0       0       0       000010001D    159
     508       0       0       1       1       0       0               0D    160
     510     146       0       0       0       0       0       000010001D    161
     510       0       0       1       1       0       0               0D    162
     116     147       0       0       0       0       0       000010001D    163
     116       0       0       1       0       0       0               0D    164
     123     148       0       0       0       0       0       000010201D    165
     123       0       0       1       0       0       0               0D    166
     123     149       0       0       0       0       0       000010201D    167
     123       0       0       1       0       0       0               0D    168
     192     150       0       0       0       0       0       000010001D    169
     192       0       0       1       1       0       0               0D    170
     508     151       0       0       0       0       0       000010001D    171
     508       0       0       1       1       0       0               0D    172
     510     152       0       0       0       0       0       000010001D    173
     510       0       0       1       1       0       0               0D    174
     116     153       0       0       0       0       0       000010001D    175
     116       0       0       1       0       0       0               0D    176
     123     154       0       0       0       0       0       000010201D    177
     123       0       0       1       0       0       0               0D    178
     123     155       0       0       0       0       0       000010201D    179
     123       0       0       1       0       0       0               0D    180
     194     156       0       0       0       0       0       000010001D    181
     194       0       0       1       1       0       0               0D    182
     508     157       0       0       0       0       0       000010001D    183
     508       0       0       1       1       0       0               0D    184
     510     158       0       0       0       0       0       000010001D    185
     510       0       0       1       1       0       0               0D    186
     116     159       0       0       0       0       0       000010001D    187
     116       0       0       1       0       0       0               0D    188
     123     160       0       0       0       0       0       000010201D    189
     123       0       0       1       0       0       0               0D    190
     123     161       0       0       0       0       0       000010201D    191
     123       0       0       1       0       0       0               0D    192
     194     162       0       0       0       0       0       000010001D    193
     194       0       0       1       1       0       0               0D    194
     508     163       0       0       0       0       0       000010001D    195
     508       0       0       1       1       0       0               0D    196
     510     164       0       0       0       0       0       000010001D    197
     510       0       0       1       1       0       0               0D    198
     116     165       0       0       0       0       0       000010001D    199
     116       0       0       1       0       0       0               0D    200
     123     166       0       0       0       0       0       000010201D    201
     123       0       0       1       0       0       0               0D    202
     123     167       0       0       0       0       0       000010201D    203
     123       0       0       1       0       0       0               0D    204
     192     168       0       0       0       0       0       000010001D    205
     192       0       0       1       1       0       0               0D    206
     508     169       0       0       0       0       0       000010001D    207
     508       0       0       1       1       0       0               0D    208
     510     170       0       0       0       0       0       000010001D    209
     510       0       0       1       1       0       0               0D    210
     110     171       0       0       0       0       0       000010001D    211
     110       0       0       1       0       0       0               0D    212
     122     172       0       0       0       0       0       000010001D    213
     122       0       0       1       0       0       0               0D    214
     508     173       0       0       0       0       0       000010001D    215
     508       0       0       1       1       0       0               0D    216
     510     174       0       0       0       0       0       000010001D    217
     510       0       0       1       1       0       0               0D    218
     116     175       0       0       0       0       0       000010001D    219
     116       0       0       1       0       0       0               0D    220
     123     176       0       0       0       0       0       000010201D    221
     123       0       0       1       0       0       0               0D    222
     123     177       0       0       0       0       0       000010201D    223
     123       0       0       1       0       0       0               0D    224
     192     178       0       0       0       0       0       000010001D    225
     192       0       0       1       1       0       0               0D    226
     508     179       0       0       0       0       0       000010001D    227
     508       0       0       1       1       0       0               0D    228
     510     180       0       0       0       0       0       000010001D    229
     510       0       0       1       1       0       0               0D    230
     110     181       0       0       0       0       0       000010001D    231
     110       0       0       1       0       0       0               0D    232
     126     182       0       0       0       0       0       000010001D    233
     126       0       0       9       0       0       0               0D    234
     120     191       0       0       0       0       0       000010001D    235
     120       0       0       1       0       0       0               0D    236
     508     192       0       0       0       0       0       000010001D    237
     508       0       0       1       1       0       0               0D    238
     510     193       0       0       0       0       0       000010001D    239
     510       0       0       1       1       0       0               0D    240
     116     194       0       0       0       0       0       000010001D    241
     116       0       0       1       0       0       0               0D    242
     123     195       0       0       0       0       0       000010201D    243
     123       0       0       1       0       0       0               0D    244
     123     196       0       0       0       0       0       000010201D    245
     123       0       0       1       0       0       0               0D    246
     194     197       0       0       0       0       0       000010001D    247
     194       0       0       1       1       0       0               0D    248
     508     198       0       0       0       0       0       000010001D    249
     508       0       0       1       1       0       0               0D    250
     510     199       0       0       0       0       0       000010001D    251
     510       0       0       1       1       0       0               0D    252
     110     200       0       0       0       0       0       000010001D    253
     110       0       0       1       0       0       0               0D    254
     124     201       0       0       0       0       0       000010001D    255
     124       0       0       1       0       0       0               0D    256
     100     202       0       0       0       0     255       000010001D    257
     100       0       0       1       0       0       0               0D    258
     120     203       0       0       0       0       0       000010001D    259
     120       0       0       1       0       0       0               0D    260
     508     204       0       0       0       0       0       000010001D    261
     508       0       0       1       1       0       0               0D    262
     510     205       0       0       0       0       0       000010001D    263
     510       0       0       1       1       0       0               0D    264
     110     206       0       0       0       0       0       000010001D    265
     110       0       0       1       0       0       0               0D    266
     124     207       0       0       0       0       0       000010001D    267
     124       0       0       1       0       0       0               0D    268
     100     208       0       0       0       0     267       000010001D    269
     100       0       0       1       0       0       0               0D    270
     120     209       0       0       0       0       0       000010001D    271
     120       0       0       1       0       0       0               0D    272
     508     210       0       0       0       0       0       000010001D    273
     508       0       0       1       1       0       0               0D    274
     510     211       0       0       0       0       0       000010001D    275
     510       0       0       1       1       0       0               0D    276
     116     212       0       0       0       0       0       000010001D    277
     116       0       0       1       0       0       0               0D    278
     123     213       0       0       0       0       0       000010201D    279
     123       0       0       1       0       0       0               0D    280
     123     214       0       0       0       0       0       000010201D    281
     123       0       0       1       0       0       0               0D    282
     194     215       0       0       0       0       0       000010001D    283
     194       0       0       1       1       0       0               0D    284
     508     216       0       0       0       0       0       000010001D    285
     508       0       0       1       1       0       0               0D    286
     510     217       0       0       0       0       0       000010001D    287
     510       0       0       1       1       0       0               0D    288
     110     218       0       0       0       0       0       000010001D    289
     110       0       0       1       0       0       0               0D    290
     126     219       0       0       0       0       0       000010001D    291
     126       0       0       9       0       0       0               0D    292
     120     228       0       0       0       0       0       000010001D    293
     120       0       0       1       0       0       0               0D    294
     508     229       0       0       0       0       0       000010001D    295
     508       0       0       1       1       0       0               0D    296
     510     230       0       0       0       0       0       000010001D    297
     510       0       0       1       1       0       0               0D    298
     116     231       0       0       0       0       0       000010001D    299
     116       0       0       1       0       0       0               0D    300
     123     232       0       0       0       0       0       000010201D    301
     123       0       0       1       0       0       0               0D    302
     123     233       0       0       0       0       0       000010201D    303
     123       0       0       1       0       0       0               0D    304
     192     234       0       0       0       0       0       000010001D    305
     192       0       0       1       1       0       0               0D    306
     508     235       0       0       0       0       0       000010001D    307
     508       0       0       1       1       0       0               0D    308
     510     236       0       0       0       0       0       000010001D    309
     510       0       0       1       1       0       0               0D    310
     110     237       0       0       0       0       0       000010001D    311
     110       0       0       1       0       0       0               0D    312
     122     238       0       0       0       0       0       000010001D    313
     122       0       0       1       0       0       0               0D    314
     508     239       0       0       0       0       0       000010001D    315
     508       0       0       1       1       0       0               0D    316
     510     240       0       0       0       0       0       000010001D    317
     510       0       0       1       1       0       0               0D    318
     514     241       0       0       0       0       0       000010001D    319
     514       0       0       2       1       0       0               0D    320
     406     243       0       0       0       0       0       000010201D    321
     406       0       0       1      15       0       0               0D    322
     186     244       0       0       0       0       0       000000001D    323
     186       0      -1       1       0       0       0               0D    324
314,50.,80.0000011920929,100.,10HMixedColor;                           1P      1
110,0.,0.,-0.04803766470795,-0.,0.,0.95196233529205;                   3P      2
126,4,3,0,0,0,0,5.40976114294965,5.40976114294965,                     5P      3
5.40976114294965,5.40976114294965,5.70641572944761,                    5P      4
6.00307031594557,6.00307031594557,6.00307031594557,                    5P      5
6.00307031594557,1.08800394369028,1.02933464789676,                    5P      6
0.97066535210324,1.02933464789676,1.08800394369028,0.,                 5P      7
0.04661274270893,-0.04803766470795,0.,0.04436443232629,                5P      8
-0.04873843155307,0.,0.0404221678068,-0.05106098617383,0.,0.039,       5P      9
-0.05453629801246,0.,0.039,-0.0562655,5.40976114294965,                5P     10
6.00307031594557;                                                      5P     11
120,3,5,0.,6.28318530717959;                                           7P     12
124,0.,1.,0.,0.,1.,0.,0.,0.,0.,0.,-1.,-0.03954794045054;               9P     13
100,0.,0.,0.,0.07385081058089,0.,-0.07385081058089,0.;                11P     14
502,18,0.,0.07385081058089,-0.03954794045054,-0.,-0.039,              13P     15
-0.0562655,-0.,0.103353,0.0005495,0.,-0.04661274263993,               13P     16
-0.04803766472946,0.,0.039,-0.0562655,0.,0.04661274263993,            13P     17
-0.04803766472946,0.,-0.07385081058089,-0.03954794045054,-0.,         13P     18
-0.103353,0.0005495,-0.,-0.07414930689309,0.03932189054769,-0.,       13P     19
0.07414930689309,0.03932189054769,-0.,-0.04761942418208,              13P     20
0.04694187248675,-0.,-0.039,0.0562655,-0.,0.04761942418208,           13P     21
0.04694187248675,-0.,0.039,0.0562655,0.,0.039,-0.2870655,0.,          13P     22
-0.039,-0.2870655,-0.,0.039,0.2870655,-0.,-0.039,0.2870655;           13P     23
126,4,3,0,0,0,0,-6.00307031729004,-6.00307031729004,                  15P     24
-6.00307031729004,-6.00307031729004,-5.70641573239602,                15P     25
-5.409761147502,-5.409761147502,-5.409761147502,-5.409761147502,      15P     26
1.08800394273864,1.02933464757955,0.97066535242045,                   15P     27
1.02933464757955,1.08800394273864,-0.,-0.039,-0.0562655,-0.,          15P     28
-0.039,-0.05453629802128,-0.,-0.0404221677922,-0.05106098620072,      15P     29
-0.,-0.04436443227462,-0.04873843158033,-0.,-0.04661274263993,        15P     30
-0.04803766472946,-6.00307031729004,-5.409761147502;                  15P     31
124,0.,1.,0.,0.,1.,0.,0.,0.,0.,0.,-1.,-0.2870655;                     17P     32
100,0.,0.,0.,-0.039,0.,0.039,-0.;                                     19P     33
124,0.,0.,-1.,-0.,1.,0.,0.,0.061353,0.,-1.,-0.,0.0005495;             21P     34
100,0.,0.,0.,0.042,0.,0.01249781058089,0.04009744045054;              23P     35
124,0.,1.,0.,0.,1.,0.,0.,0.,0.,0.,-1.,-0.0562655;                     25P     36
100,0.,0.,0.,0.039,0.,-0.039,0.;                                      27P     37
124,0.,1.,0.,-0.,1.,0.,0.,0.,0.,0.,-1.,0.0005495;                     29P     38
100,0.,0.,0.,0.103353,0.,-0.103353,0.;                                31P     39
126,4,3,0,0,0,0,-0.87342415967759,-0.87342415967759,                  33P     40
-0.87342415967759,-0.87342415967759,-0.57676957478357,                33P     41
-0.28011498988955,-0.28011498988955,-0.28011498988955,                33P     42
-0.28011498988955,1.08800394273864,1.02933464757955,                  33P     43
0.97066535242045,1.02933464757955,1.08800394273864,0.,                33P     44
0.04661274263993,-0.04803766472946,0.,0.04436443227462,               33P     45
-0.04873843158033,0.,0.0404221677922,-0.05106098620072,0.,0.039,      33P     46
-0.05453629802128,0.,0.039,-0.0562655,-0.87342415967759,              33P     47
-0.28011498988955;                                                    33P     48
124,0.,1.,0.,0.,1.,0.,0.,0.,0.,0.,-1.,-0.04803766472946;              35P     49
100,0.,0.,0.,0.04661274263993,0.,-0.04661274263993,0.;                37P     50
124,-0.,-0.,-1.,-0.,-1.,0.,0.,-0.061353,0.,1.,-0.,0.0005495;          39P     51
100,0.,0.,0.,0.01249781058089,-0.04009744045054,0.042,-0.;            41P     52
124,-0.,0.,-1.,-0.,0.,1.,0.,-0.063013,1.,0.,-0.,0.0005495;            43P     53
100,0.,0.,0.,0.,-0.04034,0.03877239054769,-0.01113630689309;          45P     54
124,-0.,0.,-1.,-0.,0.,1.,0.,0.063013,1.,0.,-0.,0.0005495;             47P     55
100,0.,0.,0.,0.03877239054769,0.01113630689309,0.,0.04034;            49P     56
124,0.,1.,0.,-0.,1.,0.,0.,0.,0.,0.,-1.,0.03932189054769;              51P     57
100,0.,0.,0.,0.07414930689309,0.,-0.07414930689309,0.;                53P     58
126,4,3,0,0,0,0,-0.91002834575169,-0.91002834575169,                  55P     59
-0.91002834575169,-0.91002834575169,-0.60044712451134,                55P     60
-0.29086590327098,-0.29086590327098,-0.29086590327098,                55P     61
-0.29086590327098,1.09584053254467,1.03194684418156,                  55P     62
0.96805315581844,1.03194684418156,1.09584053254467,-0.,               55P     63
-0.04761942418208,0.04694187248675,-0.,-0.045102067782,               55P     64
0.04766491414177,-0.,-0.0406262044994,0.05024246527504,-0.,           55P     65
-0.039,0.05426551829561,-0.,-0.039,0.0562655,-0.91002834575169,       55P     66
-0.29086590327098;                                                    55P     67
124,0.,1.,0.,-0.,1.,0.,0.,0.,0.,0.,-1.,0.04694187248675;              57P     68
100,0.,0.,0.,0.04761942418208,0.,-0.04761942418208,0.;                59P     69
126,4,3,0,0,0,0,0.29086590327098,0.29086590327098,                    61P     70
0.29086590327098,0.29086590327098,0.60044712451134,                   61P     71
0.9100283457517,0.9100283457517,0.9100283457517,0.9100283457517,      61P     72
1.09584053254467,1.03194684418156,0.96805315581844,                   61P     73
1.03194684418156,1.09584053254467,-0.,0.039,0.0562655,-0.,0.039,      61P     74
0.05426551829561,-0.,0.0406262044994,0.05024246527504,-0.,            61P     75
0.045102067782,0.04766491414177,-0.,0.04761942418208,                 61P     76
0.04694187248675,0.29086590327098,0.9100283457517;                    61P     77
124,0.,1.,0.,-0.,1.,0.,0.,0.,0.,0.,-1.,0.0562655;                     63P     78
100,0.,0.,0.,0.039,0.,-0.039,0.;                                      65P     79
110,0.,0.039,-0.0562655,0.,0.039,-0.2870655;                          67P     80
110,0.,-0.039,-0.2870655,-0.,-0.039,-0.0562655;                       69P     81
124,0.,1.,0.,0.,1.,0.,0.,0.,0.,0.,-1.,-0.2870655;                     71P     82
100,0.,0.,0.,0.039,0.,-0.039,0.;                                      73P     83
110,-0.,0.04661274263994,-0.04803766472948,-0.,0.07385081058089,      75P     84
-0.03954794045054;                                                    75P     85
124,0.,1.,0.,0.,1.,0.,0.,0.,0.,0.,-1.,-0.04803766472946;              77P     86
100,0.,0.,0.,-0.04661274263993,0.,0.04661274263993,-0.;               79P     87
110,0.,-0.07385081058089,-0.03954794045054,0.,-0.04661274263994,      81P     88
-0.04803766472948;                                                    81P     89
124,0.,1.,0.,0.,1.,0.,0.,0.,0.,0.,-1.,-0.03954794045054;              83P     90
100,0.,0.,0.,-0.07385081058089,0.,0.07385081058089,-0.;               85P     91
110,0.,0.04761942418208,0.04694187248675,0.,0.07414930689309,         87P     92
0.03932189054769;                                                     87P     93
110,-0.,-0.07414930689309,0.03932189054769,-0.,                       89P     94
-0.04761942418208,0.04694187248675;                                   89P     95
110,-0.,0.039,0.2870655,0.,0.039,0.0562655;                           91P     96
124,0.,1.,0.,-0.,1.,0.,0.,0.,0.,0.,-1.,0.2870655;                     93P     97
100,0.,0.,0.,0.039,0.,-0.039,0.;                                      95P     98
110,-0.,-0.039,0.0562655,-0.,-0.039,0.2870655;                        97P     99
124,0.,1.,0.,-0.,1.,0.,0.,0.,0.,0.,-1.,0.2870655;                     99P    100
100,0.,0.,0.,-0.039,0.,0.039,-0.;                                    101P    101
124,0.,1.,0.,-0.,1.,0.,0.,0.,0.,0.,-1.,0.0562655;                    103P    102
100,0.,0.,0.,-0.039,0.,0.039,-0.;                                    105P    103
124,0.,1.,0.,-0.,1.,0.,0.,0.,0.,0.,-1.,0.04694187248675;             107P    104
100,0.,0.,0.,-0.04761942418208,0.,0.04761942418208,-0.;              109P    105
124,0.,1.,0.,-0.,1.,0.,0.,0.,0.,0.,-1.,0.03932189054769;             111P    106
100,0.,0.,0.,-0.07414930689309,0.,0.07414930689309,-0.;              113P    107
124,0.,1.,0.,-0.,1.,0.,0.,0.,0.,0.,-1.,0.0005495;                    115P    108
100,0.,0.,0.,-0.103353,0.,0.103353,-0.;                              117P    109
124,0.,1.,0.,0.,1.,0.,0.,0.,0.,0.,-1.,-0.0562655;                    119P    110
100,0.,0.,0.,-0.039,0.,0.039,-0.;                                    121P    111
504,34,11,13,1,13,7,15,13,2,13,4,19,13,16,13,15,23,13,3,13,1,27,     123P    112
13,5,13,2,31,13,3,13,8,33,13,6,13,5,37,13,6,13,4,41,13,7,13,8,       123P    113
45,13,8,13,9,49,13,10,13,3,53,13,10,13,9,55,13,11,13,12,59,13,       123P    114
13,13,11,61,13,14,13,13,65,13,14,13,12,67,13,5,13,15,69,13,16,       123P    115
13,2,73,13,15,13,16,75,13,6,13,1,79,13,4,13,6,81,13,7,13,4,85,       123P    116
13,7,13,1,87,13,13,13,10,89,13,9,13,11,91,13,17,13,14,95,13,17,      123P    117
13,18,97,13,12,13,18,101,13,18,13,17,105,13,12,13,14,109,13,11,      123P    118
13,13,113,13,9,13,10,117,13,8,13,3,121,13,2,13,5;                    123P    119
508,4,0,123,2,0,0,0,123,5,0,0,0,123,7,0,0,0,123,8,1,0;               125P    120
510,7,1,1,125;                                                       127P    121
110,-0.,0.,0.0005495,-0.,0.,1.0005495;                               129P    122
124,0.,0.,-1.,-0.,1.,0.,0.,0.061353,0.,-1.,-0.,0.0005495;            131P    123
100,0.,0.,0.,0.042,0.,0.01249781004743,0.04009744061681;             133P    124
120,129,133,0.,6.28318530717959;                                     135P    125
508,4,0,123,9,0,0,0,123,1,0,0,0,123,4,0,0,0,123,6,1,0;               137P    126
510,135,1,1,137;                                                     139P    127
110,-0.,0.,0.03932189069198,-0.,0.,1.03932189069198;                 141P    128
124,-0.,0.,-1.,-0.,0.,1.,0.,0.063013,1.,0.,-0.,0.0005495;            143P    129
100,0.,0.,0.,0.03877239069198,0.01113630639072,-0.,0.04034;          145P    130
120,141,145,0.,6.28318530717959;                                     147P    131
508,4,0,123,10,0,0,0,123,6,0,0,0,123,11,0,0,0,123,12,1,0;            149P    132
510,147,1,1,149;                                                     151P    133
110,-0.,0.,0.0562655,-0.,0.,1.0562655;                               153P    134
126,4,3,0,0,0,0,0.29086590417254,0.29086590417254,                   155P    135
0.29086590417254,0.29086590417254,0.6004471265056,                   155P    136
0.91002834883866,0.91002834883866,0.91002834883866,                  155P    137
0.91002834883866,1.09584053322123,1.03194684440708,                  155P    138
0.96805315559292,1.03194684440708,1.09584053322123,-0.,0.039,        155P    139
0.0562655,-0.,0.039,0.05426551828899,-0.,0.04062620451026,           155P    140
0.05024246525478,-0.,0.04510206781997,0.04766491412231,-0.,          155P    141
0.04761942423228,0.04694187247233,0.29086590417254,                  155P    142
0.91002834883866;                                                    155P    143
120,153,155,0.,6.28318530717959;                                     157P    144
508,4,0,123,13,0,0,0,123,14,0,0,0,123,15,0,0,0,123,16,1,0;           159P    145
510,157,1,1,159;                                                     161P    146
116,0.,0.,-0.0562655;                                                163P    147
123,0.,0.,-1.;                                                       165P    148
123,0.,1.,0.;                                                        167P    149
192,163,165,0.039,167;                                               169P    150
508,4,0,123,17,0,0,0,123,5,1,0,0,123,18,0,0,0,123,19,0,0;            171P    151
510,169,1,1,171;                                                     173P    152
116,0.,0.,-0.03954794045054;                                         175P    153
123,-0.,0.,1.;                                                       177P    154
123,0.,1.,0.;                                                        179P    155
194,175,177,0.07385081058089,72.68847493006562,179;                  181P    156
508,4,0,123,20,0,0,0,123,21,0,0,0,123,22,0,0,0,123,23,1,0;           183P    157
510,181,1,1,183;                                                     185P    158
116,-0.,0.,0.04694187248675;                                         187P    159
123,0.,0.,-1.;                                                       189P    160
123,0.,1.,0.;                                                        191P    161
194,187,189,0.04761942418208,73.97473809785173,191;                  193P    162
508,4,0,123,24,0,0,0,123,14,1,0,0,123,25,0,0,0,123,12,0,0;           195P    163
510,193,1,1,195;                                                     197P    164
116,-0.,0.,0.2870655;                                                199P    165
123,0.,0.,-1.;                                                       201P    166
123,0.,1.,0.;                                                        203P    167
192,199,201,0.039,203;                                               205P    168
508,4,0,123,26,0,0,0,123,27,1,0,0,123,28,0,0,0,123,16,0,0;           207P    169
510,205,1,1,207;                                                     209P    170
110,-0.039,-0.039,0.2870655,-0.039,0.039,0.2870655;                  211P    171
122,211,0.039,-0.039,0.2870655;                                      213P    172
508,2,0,123,27,0,0,0,123,29,0,0;                                     215P    173
510,213,1,1,215;                                                     217P    174
116,-0.,0.,0.2870655;                                                219P    175
123,0.,0.,-1.;                                                       221P    176
123,0.,1.,0.;                                                        223P    177
192,219,221,0.039,223;                                               225P    178
508,4,0,123,26,1,0,0,123,30,0,0,0,123,28,1,0,0,123,29,1,0;           227P    179
510,225,1,1,227;                                                     229P    180
110,-0.,0.,0.0562655,-0.,0.,1.0562655;                               231P    181
126,4,3,0,0,0,0,0.29086590417254,0.29086590417254,                   233P    182
0.29086590417254,0.29086590417254,0.6004471265056,                   233P    183
0.91002834883866,0.91002834883866,0.91002834883866,                  233P    184
0.91002834883866,1.09584053322123,1.03194684440708,                  233P    185
0.96805315559292,1.03194684440708,1.09584053322123,-0.,0.039,        233P    186
0.0562655,-0.,0.039,0.05426551828899,-0.,0.04062620451026,           233P    187
0.05024246525478,-0.,0.04510206781997,0.04766491412231,-0.,          233P    188
0.04761942423228,0.04694187247233,0.29086590417254,                  233P    189
0.91002834883866;                                                    233P    190
120,231,233,0.,6.28318530717959;                                     235P    191
508,4,0,123,13,1,0,0,123,30,1,0,0,123,15,1,0,0,123,31,0,0;           237P    192
510,235,1,1,237;                                                     239P    193
116,-0.,0.,0.04694187248675;                                         241P    194
123,0.,0.,-1.;                                                       243P    195
123,0.,1.,0.;                                                        245P    196
194,241,243,0.04761942418208,73.97473809785173,245;                  247P    197
508,4,0,123,24,1,0,0,123,32,0,0,0,123,25,1,0,0,123,31,1,0;           249P    198
510,247,1,1,249;                                                     251P    199
110,-0.,0.,0.03932189069198,-0.,0.,1.03932189069198;                 253P    200
124,-0.,0.,-1.,-0.,0.,1.,0.,0.063013,1.,0.,-0.,0.0005495;            255P    201
100,0.,0.,0.,0.03877239069198,0.01113630639072,-0.,0.04034;          257P    202
120,253,257,0.,6.28318530717959;                                     259P    203
508,4,0,123,10,1,0,0,123,32,1,0,0,123,11,1,0,0,123,33,0,0;           261P    204
510,259,1,1,261;                                                     263P    205
110,-0.,0.,0.0005495,-0.,0.,1.0005495;                               265P    206
124,0.,0.,-1.,-0.,1.,0.,0.,0.061353,0.,-1.,-0.,0.0005495;            267P    207
100,0.,0.,0.,0.042,0.,0.01249781004743,0.04009744061681;             269P    208
120,265,269,0.,6.28318530717959;                                     271P    209
508,4,0,123,9,1,0,0,123,33,1,0,0,123,4,1,0,0,123,23,0,0;             273P    210
510,271,1,1,273;                                                     275P    211
116,0.,0.,-0.03954794045054;                                         277P    212
123,-0.,0.,1.;                                                       279P    213
123,0.,1.,0.;                                                        281P    214
194,277,279,0.07385081058089,72.68847493006562,281;                  283P    215
508,4,0,123,20,1,0,0,123,1,1,0,0,123,22,1,0,0,123,8,0,0;             285P    216
510,283,1,1,285;                                                     287P    217
110,0.,0.,-0.04803766470795,-0.,0.,0.95196233529205;                 289P    218
126,4,3,0,0,0,0,5.40976114294965,5.40976114294965,                   291P    219
5.40976114294965,5.40976114294965,5.70641572944761,                  291P    220
6.00307031594557,6.00307031594557,6.00307031594557,                  291P    221
6.00307031594557,1.08800394369028,1.02933464789676,                  291P    222
0.97066535210324,1.02933464789676,1.08800394369028,0.,               291P    223
0.04661274270893,-0.04803766470795,0.,0.04436443232629,              291P    224
-0.04873843155307,0.,0.0404221678068,-0.05106098617383,0.,0.039,     291P    225
-0.05453629801246,0.,0.039,-0.0562655,5.40976114294965,              291P    226
6.00307031594557;                                                    291P    227
120,289,291,0.,6.28318530717959;                                     293P    228
508,4,0,123,2,1,0,0,123,21,1,0,0,123,7,1,0,0,123,34,0,0;             295P    229
510,293,1,1,295;                                                     297P    230
116,0.,0.,-0.0562655;                                                299P    231
123,0.,0.,-1.;                                                       301P    232
123,0.,1.,0.;                                                        303P    233
192,299,301,0.039,303;                                               305P    234
508,4,0,123,17,1,0,0,123,3,0,0,0,123,18,1,0,0,123,34,1,0;            307P    235
510,305,1,1,307;                                                     309P    236
110,-0.039,-0.039,-0.2870655,-0.039,0.039,-0.2870655;                311P    237
122,311,0.039,-0.039,-0.2870655;                                     313P    238
508,2,0,123,19,1,0,0,123,3,1,0;                                      315P    239
510,313,1,1,315;                                                     317P    240
514,18,127,1,139,1,151,1,161,1,173,1,185,1,197,1,209,1,217,0,        319P    241
229,1,239,1,251,1,263,1,275,1,287,1,297,1,309,1,317,1;               319P    242
406,1,34HOpen CASCADE STEP translator 7.9 1;                         321P    243
186,319,1,0,0,1,321;                                                 323P    244
S      1G      3D    324P    244                                        T      1
