3D InterOp IGES (v. 2026 1.0.0), Spatial Corp. Copyright (c) 1999-2020. S      1
1H,,1H;,6HNoname,14Htesla1cell.igs,13HSpatial Corp.,20H3D InterOp ACIS/IG      1
GES,32,38, 6,308,15,6HNoname,1.000,6,1HM,1,1.000,15H20260320.090318,    G      2
1.0e-09,0.00,5HSoske,6HNoname,11,0,15H20260320.090318;                  G      3
     110       1       0       0       0       0       0       000010001D      1
     110       0       0       1       0       0       0               0D      2
     126       2       0       0       0       0       0       000010001D      3
     126       0       0       9       0       0       0               0D      4
     120      11       0       0       0       0       0       000010001D      5
     120       0       0       1       0       0       0               0D      6
     124      12       0       0       0       0       0       000010001D      7
     124       0       0       1       0       0       0               0D      8
     100      13       0       0       0       0       7       000010001D      9
     100       0       0       1       0       0       0               0D     10
     502      14       0       0       0       0       0       000010001D     11
     502       0       0       9       1       0       0               0D     12
     126      23       0       0       0       0       0       000010001D     13
     126       0       0       8       0       0       0               0D     14
     124      31       0       0       0       0       0       000010001D     15
     124       0       0       1       0       0       0               0D     16
     100      32       0       0       0       0      15       000010001D     17
     100       0       0       1       0       0       0               0D     18
     124      33       0       0       0       0       0       000010001D     19
     124       0       0       1       0       0       0               0D     20
     100      34       0       0       0       0      19       000010001D     21
     100       0       0       1       0       0       0               0D     22
     124      35       0       0       0       0       0       000010001D     23
     124       0       0       1       0       0       0               0D     24
     100      36       0       0       0       0      23       000010001D     25
     100       0       0       1       0       0       0               0D     26
     124      37       0       0       0       0       0       000010001D     27
     124       0       0       1       0       0       0               0D     28
     100      38       0       0       0       0      27       000010001D     29
     100       0       0       1       0       0       0               0D     30
     126      39       0       0       0       0       0       000010001D     31
     126       0       0       9       0       0       0               0D     32
     124      48       0       0       0       0       0       000010001D     33
     124       0       0       1       0       0       0               0D     34
     100      49       0       0       0       0      33       000010001D     35
     100       0       0       1       0       0       0               0D     36
     124      50       0       0       0       0       0       000010001D     37
     124       0       0       1       0       0       0               0D     38
     100      51       0       0       0       0      37       000010001D     39
     100       0       0       1       0       0       0               0D     40
     124      52       0       0       0       0       0       000010001D     41
     124       0       0       1       0       0       0               0D     42
     100      53       0       0       0       0      41       000010001D     43
     100       0       0       1       0       0       0               0D     44
     124      54       0       0       0       0       0       000010001D     45
     124       0       0       1       0       0       0               0D     46
     100      55       0       0       0       0      45       000010001D     47
     100       0       0       1       0       0       0               0D     48
     124      56       0       0       0       0       0       000010001D     49
     124       0       0       1       0       0       0               0D     50
     100      57       0       0       0       0      49       000010001D     51
     100       0       0       1       0       0       0               0D     52
     126      58       0       0       0       0       0       000010001D     53
     126       0       0       9       0       0       0               0D     54
     124      67       0       0       0       0       0       000010001D     55
     124       0       0       1       0       0       0               0D     56
     100      68       0       0       0       0      55       000010001D     57
     100       0       0       1       0       0       0               0D     58
     126      69       0       0       0       0       0       000010001D     59
     126       0       0       8       0       0       0               0D     60
     124      77       0       0       0       0       0       000010001D     61
     124       0       0       1       0       0       0               0D     62
     100      78       0       0       0       0      61       000010001D     63
     100       0       0       1       0       0       0               0D     64
     110      79       0       0       0       0       0       000010001D     65
     110       0       0       1       0       0       0               0D     66
     110      80       0       0       0       0       0       000010001D     67
     110       0       0       1       0       0       0               0D     68
     124      81       0       0       0       0       0       000010001D     69
     124       0       0       1       0       0       0               0D     70
     100      82       0       0       0       0      69       000010001D     71
     100       0       0       1       0       0       0               0D     72
     110      83       0       0       0       0       0       000010001D     73
     110       0       0       2       0       0       0               0D     74
     124      85       0       0       0       0       0       000010001D     75
     124       0       0       1       0       0       0               0D     76
     100      86       0       0       0       0      75       000010001D     77
     100       0       0       1       0       0       0               0D     78
     110      87       0       0       0       0       0       000010001D     79
     110       0       0       2       0       0       0               0D     80
     124      89       0       0       0       0       0       000010001D     81
     124       0       0       1       0       0       0               0D     82
     100      90       0       0       0       0      81       000010001D     83
     100       0       0       1       0       0       0               0D     84
     110      91       0       0       0       0       0       000010001D     85
     110       0       0       2       0       0       0               0D     86
     110      93       0       0       0       0       0       000010001D     87
     110       0       0       2       0       0       0               0D     88
     110      95       0       0       0       0       0       000010001D     89
     110       0       0       1       0       0       0               0D     90
     124      96       0       0       0       0       0       000010001D     91
     124       0       0       1       0       0       0               0D     92
     100      97       0       0       0       0      91       000010001D     93
     100       0       0       1       0       0       0               0D     94
     110      98       0       0       0       0       0       000010001D     95
     110       0       0       1       0       0       0               0D     96
     124      99       0       0       0       0       0       000010001D     97
     124       0       0       1       0       0       0               0D     98
     100     100       0       0       0       0      97       000010001D     99
     100       0       0       1       0       0       0               0D    100
     124     101       0       0       0       0       0       000010001D    101
     124       0       0       1       0       0       0               0D    102
     100     102       0       0       0       0     101       000010001D    103
     100       0       0       1       0       0       0               0D    104
     124     103       0       0       0       0       0       000010001D    105
     124       0       0       1       0       0       0               0D    106
     100     104       0       0       0       0     105       000010001D    107
     100       0       0       1       0       0       0               0D    108
     124     105       0       0       0       0       0       000010001D    109
     124       0       0       1       0       0       0               0D    110
     100     106       0       0       0       0     109       000010001D    111
     100       0       0       1       0       0       0               0D    112
     124     107       0       0       0       0       0       000010001D    113
     124       0       0       1       0       0       0               0D    114
     100     108       0       0       0       0     113       000010001D    115
     100       0       0       1       0       0       0               0D    116
     124     109       0       0       0       0       0       000010001D    117
     124       0       0       1       0       0       0               0D    118
     100     110       0       0       0       0     117       000010001D    119
     100       0       0       1       0       0       0               0D    120
     504     111       0       0       0       0       0       000010001D    121
     504       0       0       8       1       0       0               0D    122
     508     119       0       0       0       0       0       000010001D    123
     508       0       0       1       1       0       0               0D    124
     510     120       0       0       0       0       0       000010001D    125
     510       0       0       1       1       0       0               0D    126
     110     121       0       0       0       0       0       000010001D    127
     110       0       0       1       0       0       0               0D    128
     124     122       0       0       0       0       0       000010001D    129
     124       0       0       1       0       0       0               0D    130
     100     123       0       0       0       0     129       000010001D    131
     100       0       0       1       0       0       0               0D    132
     120     124       0       0       0       0       0       000010001D    133
     120       0       0       1       0       0       0               0D    134
     508     125       0       0       0       0       0       000010001D    135
     508       0       0       1       1       0       0               0D    136
     510     126       0       0       0       0       0       000010001D    137
     510       0       0       1       1       0       0               0D    138
     110     127       0       0       0       0       0       000010001D    139
     110       0       0       1       0       0       0               0D    140
     124     128       0       0       0       0       0       000010001D    141
     124       0       0       1       0       0       0               0D    142
     100     129       0       0       0       0     141       000010001D    143
     100       0       0       1       0       0       0               0D    144
     120     130       0       0       0       0       0       000010001D    145
     120       0       0       1       0       0       0               0D    146
     508     131       0       0       0       0       0       000010001D    147
     508       0       0       1       1       0       0               0D    148
     510     132       0       0       0       0       0       000010001D    149
     510       0       0       1       1       0       0               0D    150
     110     133       0       0       0       0       0       000010001D    151
     110       0       0       1       0       0       0               0D    152
     126     134       0       0       0       0       0       000010001D    153
     126       0       0       9       0       0       0               0D    154
     120     143       0       0       0       0       0       000010001D    155
     120       0       0       1       0       0       0               0D    156
     508     144       0       0       0       0       0       000010001D    157
     508       0       0       1       1       0       0               0D    158
     510     145       0       0       0       0       0       000010001D    159
     510       0       0       1       1       0       0               0D    160
     116     146       0       0       0       0       0       000010001D    161
     116       0       0       1       0       0       0               0D    162
     123     147       0       0       0       0       0       000010201D    163
     123       0       0       1       0       0       0               0D    164
     123     148       0       0       0       0       0       000010201D    165
     123       0       0       1       0       0       0               0D    166
     192     149       0       0       0       0       0       000010001D    167
     192       0       0       1       1       0       0               0D    168
     508     150       0       0       0       0       0       000010001D    169
     508       0       0       1       1       0       0               0D    170
     510     151       0       0       0       0       0       000010001D    171
     510       0       0       1       1       0       0               0D    172
     116     152       0       0       0       0       0       000010001D    173
     116       0       0       1       0       0       0               0D    174
     123     153       0       0       0       0       0       000010201D    175
     123       0       0       1       0       0       0               0D    176
     123     154       0       0       0       0       0       000010201D    177
     123       0       0       1       0       0       0               0D    178
     194     155       0       0       0       0       0       000010001D    179
     194       0       0       1       1       0       0               0D    180
     508     156       0       0       0       0       0       000010001D    181
     508       0       0       1       1       0       0               0D    182
     510     157       0       0       0       0       0       000010001D    183
     510       0       0       1       1       0       0               0D    184
     116     158       0       0       0       0       0       000010001D    185
     116       0       0       1       0       0       0               0D    186
     123     159       0       0       0       0       0       000010201D    187
     123       0       0       1       0       0       0               0D    188
     123     160       0       0       0       0       0       000010201D    189
     123       0       0       1       0       0       0               0D    190
     194     161       0       0       0       0       0       000010001D    191
     194       0       0       1       1       0       0               0D    192
     508     162       0       0       0       0       0       000010001D    193
     508       0       0       1       1       0       0               0D    194
     510     163       0       0       0       0       0       000010001D    195
     510       0       0       1       1       0       0               0D    196
     116     164       0       0       0       0       0       000010001D    197
     116       0       0       1       0       0       0               0D    198
     123     165       0       0       0       0       0       000010201D    199
     123       0       0       1       0       0       0               0D    200
     123     166       0       0       0       0       0       000010201D    201
     123       0       0       1       0       0       0               0D    202
     192     167       0       0       0       0       0       000010001D    203
     192       0       0       1       1       0       0               0D    204
     508     168       0       0       0       0       0       000010001D    205
     508       0       0       1       1       0       0               0D    206
     510     169       0       0       0       0       0       000010001D    207
     510       0       0       1       1       0       0               0D    208
     110     170       0       0       0       0       0       000010001D    209
     110       0       0       1       0       0       0               0D    210
     122     171       0       0       0       0       0       000010001D    211
     122       0       0       1       0       0       0               0D    212
     508     172       0       0       0       0       0       000010001D    213
     508       0       0       1       1       0       0               0D    214
     510     173       0       0       0       0       0       000010001D    215
     510       0       0       1       1       0       0               0D    216
     116     174       0       0       0       0       0       000010001D    217
     116       0       0       1       0       0       0               0D    218
     123     175       0       0       0       0       0       000010201D    219
     123       0       0       1       0       0       0               0D    220
     123     176       0       0       0       0       0       000010201D    221
     123       0       0       1       0       0       0               0D    222
     192     177       0       0       0       0       0       000010001D    223
     192       0       0       1       1       0       0               0D    224
     508     178       0       0       0       0       0       000010001D    225
     508       0       0       1       1       0       0               0D    226
     510     179       0       0       0       0       0       000010001D    227
     510       0       0       1       1       0       0               0D    228
     110     180       0       0       0       0       0       000010001D    229
     110       0       0       1       0       0       0               0D    230
     126     181       0       0       0       0       0       000010001D    231
     126       0       0       9       0       0       0               0D    232
     120     190       0       0       0       0       0       000010001D    233
     120       0       0       1       0       0       0               0D    234
     508     191       0       0       0       0       0       000010001D    235
     508       0       0       1       1       0       0               0D    236
     510     192       0       0       0       0       0       000010001D    237
     510       0       0       1       1       0       0               0D    238
     116     193       0       0       0       0       0       000010001D    239
     116       0       0       1       0       0       0               0D    240
     123     194       0       0       0       0       0       000010201D    241
     123       0       0       1       0       0       0               0D    242
     123     195       0       0       0       0       0       000010201D    243
     123       0       0       1       0       0       0               0D    244
     194     196       0       0       0       0       0       000010001D    245
     194       0       0       1       1       0       0               0D    246
     508     197       0       0       0       0       0       000010001D    247
     508       0       0       1       1       0       0               0D    248
     510     198       0       0       0       0       0       000010001D    249
     510       0       0       1       1       0       0               0D    250
     110     199       0       0       0       0       0       000010001D    251
     110       0       0       1       0       0       0               0D    252
     124     200       0       0       0       0       0       000010001D    253
     124       0       0       1       0       0       0               0D    254
     100     201       0       0       0       0     253       000010001D    255
     100       0       0       1       0       0       0               0D    256
     120     202       0       0       0       0       0       000010001D    257
     120       0       0       1       0       0       0               0D    258
     508     203       0       0       0       0       0       000010001D    259
     508       0       0       1       1       0       0               0D    260
     510     204       0       0       0       0       0       000010001D    261
     510       0       0       1       1       0       0               0D    262
     110     205       0       0       0       0       0       000010001D    263
     110       0       0       1       0       0       0               0D    264
     124     206       0       0       0       0       0       000010001D    265
     124       0       0       1       0       0       0               0D    266
     100     207       0       0       0       0     265       000010001D    267
     100       0       0       1       0       0       0               0D    268
     120     208       0       0       0       0       0       000010001D    269
     120       0       0       1       0       0       0               0D    270
     508     209       0       0       0       0       0       000010001D    271
     508       0       0       1       1       0       0               0D    272
     510     210       0       0       0       0       0       000010001D    273
     510       0       0       1       1       0       0               0D    274
     116     211       0       0       0       0       0       000010001D    275
     116       0       0       1       0       0       0               0D    276
     123     212       0       0       0       0       0       000010201D    277
     123       0       0       1       0       0       0               0D    278
     123     213       0       0       0       0       0       000010201D    279
     123       0       0       1       0       0       0               0D    280
     194     214       0       0       0       0       0       000010001D    281
     194       0       0       1       1       0       0               0D    282
     508     215       0       0       0       0       0       000010001D    283
     508       0       0       1       1       0       0               0D    284
     510     216       0       0       0       0       0       000010001D    285
     510       0       0       1       1       0       0               0D    286
     110     217       0       0       0       0       0       000010001D    287
     110       0       0       1       0       0       0               0D    288
     126     218       0       0       0       0       0       000010001D    289
     126       0       0       9       0       0       0               0D    290
     120     227       0       0       0       0       0       000010001D    291
     120       0       0       1       0       0       0               0D    292
     508     228       0       0       0       0       0       000010001D    293
     508       0       0       1       1       0       0               0D    294
     510     229       0       0       0       0       0       000010001D    295
     510       0       0       1       1       0       0               0D    296
     116     230       0       0       0       0       0       000010001D    297
     116       0       0       1       0       0       0               0D    298
     123     231       0       0       0       0       0       000010201D    299
     123       0       0       1       0       0       0               0D    300
     123     232       0       0       0       0       0       000010201D    301
     123       0       0       1       0       0       0               0D    302
     192     233       0       0       0       0       0       000010001D    303
     192       0       0       1       1       0       0               0D    304
     508     234       0       0       0       0       0       000010001D    305
     508       0       0       1       1       0       0               0D    306
     510     235       0       0       0       0       0       000010001D    307
     510       0       0       1       1       0       0               0D    308
     110     236       0       0       0       0       0       000010001D    309
     110       0       0       1       0       0       0               0D    310
     122     237       0       0       0       0       0       000010001D    311
     122       0       0       1       0       0       0               0D    312
     508     238       0       0       0       0       0       000010001D    313
     508       0       0       1       1       0       0               0D    314
     510     239       0       0       0       0       0       000010001D    315
     510       0       0       1       1       0       0               0D    316
     514     240       0       0       0       0       0       000010001D    317
     514       0       0       2       1       0       0               0D    318
     406     242       0       0       0       0       0       000010201D    319
     406       0       0       1      15       0       0               0D    320
     186     243       0       0       0       0       0       000000001D    321
     186       0       0       1       0       0       0               0D    322
110,0.,0.,-0.04803766470795,-0.,0.,0.95196233529205;                   1P      1
126,4,3,0,0,0,0,5.40976114294965,5.40976114294965,                     3P      2
5.40976114294965,5.40976114294965,5.70641572944761,                    3P      3
6.00307031594557,6.00307031594557,6.00307031594557,                    3P      4
6.00307031594557,1.08800394369028,1.02933464789676,                    3P      5
0.97066535210324,1.02933464789676,1.08800394369028,0.,                 3P      6
0.04661274270893,-0.04803766470795,0.,0.04436443232629,                3P      7
-0.04873843155307,0.,0.0404221678068,-0.05106098617383,0.,0.039,       3P      8
-0.05453629801246,0.,0.039,-0.0562655,5.40976114294965,                3P      9
6.00307031594557;                                                      3P     10
120,1,3,0.,6.28318530717959;                                           5P     11
124,0.,1.,0.,0.,1.,0.,0.,0.,0.,0.,-1.,-0.03954794045054;               7P     12
100,0.,0.,0.,0.07385081058089,0.,-0.07385081058089,0.;                 9P     13
502,18,0.,0.07385081058089,-0.03954794045054,-0.,-0.039,              11P     14
-0.0562655,-0.,0.103353,0.0005495,0.,-0.04661274263993,               11P     15
-0.04803766472946,0.,0.039,-0.0562655,0.,0.04661274263993,            11P     16
-0.04803766472946,0.,-0.07385081058089,-0.03954794045054,-0.,         11P     17
-0.103353,0.0005495,-0.,-0.07414930689309,0.03932189054769,-0.,       11P     18
0.07414930689309,0.03932189054769,-0.,-0.04761942418208,              11P     19
0.04694187248675,-0.,-0.039,0.0562655,-0.,0.04761942418208,           11P     20
0.04694187248675,-0.,0.039,0.0562655,0.,0.039,-0.2870655,0.,          11P     21
-0.039,-0.2870655,-0.,0.039,0.2870655,-0.,-0.039,0.2870655;           11P     22
126,4,3,0,0,0,0,-6.00307031729004,-6.00307031729004,                  13P     23
-6.00307031729004,-6.00307031729004,-5.70641573239602,                13P     24
-5.409761147502,-5.409761147502,-5.409761147502,-5.409761147502,      13P     25
1.08800394273864,1.02933464757955,0.97066535242045,                   13P     26
1.02933464757955,1.08800394273864,-0.,-0.039,-0.0562655,-0.,          13P     27
-0.039,-0.05453629802128,-0.,-0.0404221677922,-0.05106098620072,      13P     28
-0.,-0.04436443227462,-0.04873843158033,-0.,-0.04661274263993,        13P     29
-0.04803766472946,-6.00307031729004,-5.409761147502;                  13P     30
124,0.,1.,0.,0.,1.,0.,0.,0.,0.,0.,-1.,-0.2870655;                     15P     31
100,0.,0.,0.,-0.039,0.,0.039,-0.;                                     17P     32
124,0.,0.,-1.,-0.,1.,0.,0.,0.061353,0.,-1.,-0.,0.0005495;             19P     33
100,0.,0.,0.,0.042,0.,0.01249781058089,0.04009744045054;              21P     34
124,0.,1.,0.,0.,1.,0.,0.,0.,0.,0.,-1.,-0.0562655;                     23P     35
100,0.,0.,0.,0.039,0.,-0.039,0.;                                      25P     36
124,0.,1.,0.,-0.,1.,0.,0.,0.,0.,0.,-1.,0.0005495;                     27P     37
100,0.,0.,0.,0.103353,0.,-0.103353,0.;                                29P     38
126,4,3,0,0,0,0,-0.87342415967759,-0.87342415967759,                  31P     39
-0.87342415967759,-0.87342415967759,-0.57676957478357,                31P     40
-0.28011498988955,-0.28011498988955,-0.28011498988955,                31P     41
-0.28011498988955,1.08800394273864,1.02933464757955,                  31P     42
0.97066535242045,1.02933464757955,1.08800394273864,0.,                31P     43
0.04661274263993,-0.04803766472946,0.,0.04436443227462,               31P     44
-0.04873843158033,0.,0.0404221677922,-0.05106098620072,0.,0.039,      31P     45
-0.05453629802128,0.,0.039,-0.0562655,-0.87342415967759,              31P     46
-0.28011498988955;                                                    31P     47
124,0.,1.,0.,0.,1.,0.,0.,0.,0.,0.,-1.,-0.04803766472946;              33P     48
100,0.,0.,0.,0.04661274263993,0.,-0.04661274263993,0.;                35P     49
124,-0.,-0.,-1.,-0.,-1.,0.,0.,-0.061353,0.,1.,-0.,0.0005495;          37P     50
100,0.,0.,0.,0.01249781058089,-0.04009744045054,0.042,-0.;            39P     51
124,-0.,0.,-1.,-0.,0.,1.,0.,-0.063013,1.,0.,-0.,0.0005495;            41P     52
100,0.,0.,0.,0.,-0.04034,0.03877239054769,-0.01113630689309;          43P     53
124,-0.,0.,-1.,-0.,0.,1.,0.,0.063013,1.,0.,-0.,0.0005495;             45P     54
100,0.,0.,0.,0.03877239054769,0.01113630689309,0.,0.04034;            47P     55
124,0.,1.,0.,-0.,1.,0.,0.,0.,0.,0.,-1.,0.03932189054769;              49P     56
100,0.,0.,0.,0.07414930689309,0.,-0.07414930689309,0.;                51P     57
126,4,3,0,0,0,0,-0.91002834575169,-0.91002834575169,                  53P     58
-0.91002834575169,-0.91002834575169,-0.60044712451134,                53P     59
-0.29086590327098,-0.29086590327098,-0.29086590327098,                53P     60
-0.29086590327098,1.09584053254467,1.03194684418156,                  53P     61
0.96805315581844,1.03194684418156,1.09584053254467,-0.,               53P     62
-0.04761942418208,0.04694187248675,-0.,-0.045102067782,               53P     63
0.04766491414177,-0.,-0.0406262044994,0.05024246527504,-0.,           53P     64
-0.039,0.05426551829561,-0.,-0.039,0.0562655,-0.91002834575169,       53P     65
-0.29086590327098;                                                    53P     66
124,0.,1.,0.,-0.,1.,0.,0.,0.,0.,0.,-1.,0.04694187248675;              55P     67
100,0.,0.,0.,0.04761942418208,0.,-0.04761942418208,0.;                57P     68
126,4,3,0,0,0,0,0.29086590327098,0.29086590327098,                    59P     69
0.29086590327098,0.29086590327098,0.60044712451134,                   59P     70
0.9100283457517,0.9100283457517,0.9100283457517,0.9100283457517,      59P     71
1.09584053254467,1.03194684418156,0.96805315581844,                   59P     72
1.03194684418156,1.09584053254467,-0.,0.039,0.0562655,-0.,0.039,      59P     73
0.05426551829561,-0.,0.0406262044994,0.05024246527504,-0.,            59P     74
0.045102067782,0.04766491414177,-0.,0.04761942418208,                 59P     75
0.04694187248675,0.29086590327098,0.9100283457517;                    59P     76
124,0.,1.,0.,-0.,1.,0.,0.,0.,0.,0.,-1.,0.0562655;                     61P     77
100,0.,0.,0.,0.039,0.,-0.039,0.;                                      63P     78
110,0.,0.039,-0.0562655,0.,0.039,-0.2870655;                          65P     79
110,0.,-0.039,-0.2870655,-0.,-0.039,-0.0562655;                       67P     80
124,0.,1.,0.,0.,1.,0.,0.,0.,0.,0.,-1.,-0.2870655;                     69P     81
100,0.,0.,0.,0.039,0.,-0.039,0.;                                      71P     82
110,-0.,0.04661274263994,-0.04803766472948,-0.,0.07385081058089,      73P     83
-0.03954794045054;                                                    73P     84
124,0.,1.,0.,0.,1.,0.,0.,0.,0.,0.,-1.,-0.04803766472946;              75P     85
100,0.,0.,0.,-0.04661274263993,0.,0.04661274263993,-0.;               77P     86
110,0.,-0.07385081058089,-0.03954794045054,0.,-0.04661274263994,      79P     87
-0.04803766472948;                                                    79P     88
124,0.,1.,0.,0.,1.,0.,0.,0.,0.,0.,-1.,-0.03954794045054;              81P     89
100,0.,0.,0.,-0.07385081058089,0.,0.07385081058089,-0.;               83P     90
110,0.,0.04761942418208,0.04694187248675,0.,0.07414930689309,         85P     91
0.03932189054769;                                                     85P     92
110,-0.,-0.07414930689309,0.03932189054769,-0.,                       87P     93
-0.04761942418208,0.04694187248675;                                   87P     94
110,-0.,0.039,0.2870655,0.,0.039,0.0562655;                           89P     95
124,0.,1.,0.,-0.,1.,0.,0.,0.,0.,0.,-1.,0.2870655;                     91P     96
100,0.,0.,0.,0.039,0.,-0.039,0.;                                      93P     97
110,-0.,-0.039,0.0562655,-0.,-0.039,0.2870655;                        95P     98
124,0.,1.,0.,-0.,1.,0.,0.,0.,0.,0.,-1.,0.2870655;                     97P     99
100,0.,0.,0.,-0.039,0.,0.039,-0.;                                     99P    100
124,0.,1.,0.,-0.,1.,0.,0.,0.,0.,0.,-1.,0.0562655;                    101P    101
100,0.,0.,0.,-0.039,0.,0.039,-0.;                                    103P    102
124,0.,1.,0.,-0.,1.,0.,0.,0.,0.,0.,-1.,0.04694187248675;             105P    103
100,0.,0.,0.,-0.04761942418208,0.,0.04761942418208,-0.;              107P    104
124,0.,1.,0.,-0.,1.,0.,0.,0.,0.,0.,-1.,0.03932189054769;             109P    105
100,0.,0.,0.,-0.07414930689309,0.,0.07414930689309,-0.;              111P    106
124,0.,1.,0.,-0.,1.,0.,0.,0.,0.,0.,-1.,0.0005495;                    113P    107
100,0.,0.,0.,-0.103353,0.,0.103353,-0.;                              115P    108
124,0.,1.,0.,0.,1.,0.,0.,0.,0.,0.,-1.,-0.0562655;                    117P    109
100,0.,0.,0.,-0.039,0.,0.039,-0.;                                    119P    110
504,34,9,11,1,11,7,13,11,2,11,4,17,11,16,11,15,21,11,3,11,1,25,      121P    111
11,5,11,2,29,11,3,11,8,31,11,6,11,5,35,11,6,11,4,39,11,7,11,8,       121P    112
43,11,8,11,9,47,11,10,11,3,51,11,10,11,9,53,11,11,11,12,57,11,       121P    113
13,11,11,59,11,14,11,13,63,11,14,11,12,65,11,5,11,15,67,11,16,       121P    114
11,2,71,11,15,11,16,73,11,6,11,1,77,11,4,11,6,79,11,7,11,4,83,       121P    115
11,7,11,1,85,11,13,11,10,87,11,9,11,11,89,11,17,11,14,93,11,17,      121P    116
11,18,95,11,12,11,18,99,11,18,11,17,103,11,12,11,14,107,11,11,       121P    117
11,13,111,11,9,11,10,115,11,8,11,3,119,11,2,11,5;                    121P    118
508,4,0,121,2,0,0,0,121,5,0,0,0,121,7,0,0,0,121,8,1,0;               123P    119
510,5,1,1,123;                                                       125P    120
110,-0.,0.,0.0005495,-0.,0.,1.0005495;                               127P    121
124,0.,0.,-1.,-0.,1.,0.,0.,0.061353,0.,-1.,-0.,0.0005495;            129P    122
100,0.,0.,0.,0.042,0.,0.01249781004743,0.04009744061681;             131P    123
120,127,131,0.,6.28318530717959;                                     133P    124
508,4,0,121,9,0,0,0,121,1,0,0,0,121,4,0,0,0,121,6,1,0;               135P    125
510,133,1,1,135;                                                     137P    126
110,-0.,0.,0.03932189069198,-0.,0.,1.03932189069198;                 139P    127
124,-0.,0.,-1.,-0.,0.,1.,0.,0.063013,1.,0.,-0.,0.0005495;            141P    128
100,0.,0.,0.,0.03877239069198,0.01113630639072,-0.,0.04034;          143P    129
120,139,143,0.,6.28318530717959;                                     145P    130
508,4,0,121,10,0,0,0,121,6,0,0,0,121,11,0,0,0,121,12,1,0;            147P    131
510,145,1,1,147;                                                     149P    132
110,-0.,0.,0.0562655,-0.,0.,1.0562655;                               151P    133
126,4,3,0,0,0,0,0.29086590417254,0.29086590417254,                   153P    134
0.29086590417254,0.29086590417254,0.6004471265056,                   153P    135
0.91002834883866,0.91002834883866,0.91002834883866,                  153P    136
0.91002834883866,1.09584053322123,1.03194684440708,                  153P    137
0.96805315559292,1.03194684440708,1.09584053322123,-0.,0.039,        153P    138
0.0562655,-0.,0.039,0.05426551828899,-0.,0.04062620451026,           153P    139
0.05024246525478,-0.,0.04510206781997,0.04766491412231,-0.,          153P    140
0.04761942423228,0.04694187247233,0.29086590417254,                  153P    141
0.91002834883866;                                                    153P    142
120,151,153,0.,6.28318530717959;                                     155P    143
508,4,0,121,13,0,0,0,121,14,0,0,0,121,15,0,0,0,121,16,1,0;           157P    144
510,155,1,1,157;                                                     159P    145
116,0.,0.,-0.0562655;                                                161P    146
123,0.,0.,-1.;                                                       163P    147
123,0.,1.,0.;                                                        165P    148
192,161,163,0.039,165;                                               167P    149
508,4,0,121,17,0,0,0,121,5,1,0,0,121,18,0,0,0,121,19,0,0;            169P    150
510,167,1,1,169;                                                     171P    151
116,0.,0.,-0.03954794045054;                                         173P    152
123,-0.,0.,1.;                                                       175P    153
123,0.,1.,0.;                                                        177P    154
194,173,175,0.07385081058089,72.68847493006562,177;                  179P    155
508,4,0,121,20,0,0,0,121,21,0,0,0,121,22,0,0,0,121,23,1,0;           181P    156
510,179,1,1,181;                                                     183P    157
116,-0.,0.,0.04694187248675;                                         185P    158
123,0.,0.,-1.;                                                       187P    159
123,0.,1.,0.;                                                        189P    160
194,185,187,0.04761942418208,73.97473809785173,189;                  191P    161
508,4,0,121,24,0,0,0,121,14,1,0,0,121,25,0,0,0,121,12,0,0;           193P    162
510,191,1,1,193;                                                     195P    163
116,-0.,0.,0.2870655;                                                197P    164
123,0.,0.,-1.;                                                       199P    165
123,0.,1.,0.;                                                        201P    166
192,197,199,0.039,201;                                               203P    167
508,4,0,121,26,0,0,0,121,27,1,0,0,121,28,0,0,0,121,16,0,0;           205P    168
510,203,1,1,205;                                                     207P    169
110,-0.039,-0.039,0.2870655,-0.039,0.039,0.2870655;                  209P    170
122,209,0.039,-0.039,0.2870655;                                      211P    171
508,2,0,121,27,0,0,0,121,29,0,0;                                     213P    172
510,211,1,1,213;                                                     215P    173
116,-0.,0.,0.2870655;                                                217P    174
123,0.,0.,-1.;                                                       219P    175
123,0.,1.,0.;                                                        221P    176
192,217,219,0.039,221;                                               223P    177
508,4,0,121,26,1,0,0,121,30,0,0,0,121,28,1,0,0,121,29,1,0;           225P    178
510,223,1,1,225;                                                     227P    179
110,-0.,0.,0.0562655,-0.,0.,1.0562655;                               229P    180
126,4,3,0,0,0,0,0.29086590417254,0.29086590417254,                   231P    181
0.29086590417254,0.29086590417254,0.6004471265056,                   231P    182
0.91002834883866,0.91002834883866,0.91002834883866,                  231P    183
0.91002834883866,1.09584053322123,1.03194684440708,                  231P    184
0.96805315559292,1.03194684440708,1.09584053322123,-0.,0.039,        231P    185
0.0562655,-0.,0.039,0.05426551828899,-0.,0.04062620451026,           231P    186
0.05024246525478,-0.,0.04510206781997,0.04766491412231,-0.,          231P    187
0.04761942423228,0.04694187247233,0.29086590417254,                  231P    188
0.91002834883866;                                                    231P    189
120,229,231,0.,6.28318530717959;                                     233P    190
508,4,0,121,13,1,0,0,121,30,1,0,0,121,15,1,0,0,121,31,0,0;           235P    191
510,233,1,1,235;                                                     237P    192
116,-0.,0.,0.04694187248675;                                         239P    193
123,0.,0.,-1.;                                                       241P    194
123,0.,1.,0.;                                                        243P    195
194,239,241,0.04761942418208,73.97473809785173,243;                  245P    196
508,4,0,121,24,1,0,0,121,32,0,0,0,121,25,1,0,0,121,31,1,0;           247P    197
510,245,1,1,247;                                                     249P    198
110,-0.,0.,0.03932189069198,-0.,0.,1.03932189069198;                 251P    199
124,-0.,0.,-1.,-0.,0.,1.,0.,0.063013,1.,0.,-0.,0.0005495;            253P    200
100,0.,0.,0.,0.03877239069198,0.01113630639072,-0.,0.04034;          255P    201
120,251,255,0.,6.28318530717959;                                     257P    202
508,4,0,121,10,1,0,0,121,32,1,0,0,121,11,1,0,0,121,33,0,0;           259P    203
510,257,1,1,259;                                                     261P    204
110,-0.,0.,0.0005495,-0.,0.,1.0005495;                               263P    205
124,0.,0.,-1.,-0.,1.,0.,0.,0.061353,0.,-1.,-0.,0.0005495;            265P    206
100,0.,0.,0.,0.042,0.,0.01249781004743,0.04009744061681;             267P    207
120,263,267,0.,6.28318530717959;                                     269P    208
508,4,0,121,9,1,0,0,121,33,1,0,0,121,4,1,0,0,121,23,0,0;             271P    209
510,269,1,1,271;                                                     273P    210
116,0.,0.,-0.03954794045054;                                         275P    211
123,-0.,0.,1.;                                                       277P    212
123,0.,1.,0.;                                                        279P    213
194,275,277,0.07385081058089,72.68847493006562,279;                  281P    214
508,4,0,121,20,1,0,0,121,1,1,0,0,121,22,1,0,0,121,8,0,0;             283P    215
510,281,1,1,283;                                                     285P    216
110,0.,0.,-0.04803766470795,-0.,0.,0.95196233529205;                 287P    217
126,4,3,0,0,0,0,5.40976114294965,5.40976114294965,                   289P    218
5.40976114294965,5.40976114294965,5.70641572944761,                  289P    219
6.00307031594557,6.00307031594557,6.00307031594557,                  289P    220
6.00307031594557,1.08800394369028,1.02933464789676,                  289P    221
0.97066535210324,1.02933464789676,1.08800394369028,0.,               289P    222
0.04661274270893,-0.04803766470795,0.,0.04436443232629,              289P    223
-0.04873843155307,0.,0.0404221678068,-0.05106098617383,0.,0.039,     289P    224
-0.05453629801246,0.,0.039,-0.0562655,5.40976114294965,              289P    225
6.00307031594557;                                                    289P    226
120,287,289,0.,6.28318530717959;                                     291P    227
508,4,0,121,2,1,0,0,121,21,1,0,0,121,7,1,0,0,121,34,0,0;             293P    228
510,291,1,1,293;                                                     295P    229
116,0.,0.,-0.0562655;                                                297P    230
123,0.,0.,-1.;                                                       299P    231
123,0.,1.,0.;                                                        301P    232
192,297,299,0.039,301;                                               303P    233
508,4,0,121,17,1,0,0,121,3,0,0,0,121,18,1,0,0,121,34,1,0;            305P    234
510,303,1,1,305;                                                     307P    235
110,-0.039,-0.039,-0.2870655,-0.039,0.039,-0.2870655;                309P    236
122,309,0.039,-0.039,-0.2870655;                                     311P    237
508,2,0,121,19,1,0,0,121,3,1,0;                                      313P    238
510,311,1,1,313;                                                     315P    239
514,18,125,1,137,1,149,1,159,1,171,1,183,1,195,1,207,1,215,0,        317P    240
227,1,237,1,249,1,261,1,273,1,285,1,295,1,307,1,315,1;               317P    241
406,1,34HOpen CASCADE STEP translator 7.9 1;                         319P    242
186,317,1,0,0,1,319;                                                 321P    243
S      1G      3D    322P    243                                        T      1
