ISO-10303-21;
HEADER;
FILE_DESCRIPTION(('STEP AP242'),'1');
FILE_NAME('cavsim3d_tem_2port_test.stp','2026-06-24T16:36:27',('Soske'),(' '),'Spatial InterOp 3D','CST ACIS InterOp Converter 2025',' ');
FILE_SCHEMA(('AP242_MANAGED_MODEL_BASED_3D_ENGINEERING_MIM_LF  {1 0 10303 442 1 1 4}'));
ENDSEC;
DATA;
#1=MECHANICAL_DESIGN_GEOMETRIC_PRESENTATION_REPRESENTATION(' ',(#14,#15,#16),#10);
#2=PRODUCT_DEFINITION_CONTEXT('',#17,'design');
#3=APPLICATION_PROTOCOL_DEFINITION('INTERNATIONAL STANDARD','ap242_managed_model_based_3d_engineering',2014,#17);
#4=PRODUCT_CATEGORY_RELATIONSHIP('NONE','NONE',#18,#19);
#5=SHAPE_DEFINITION_REPRESENTATION(#20,#21);
#6=SHAPE_DEFINITION_REPRESENTATION(#20,#22);
#7=SHAPE_DEFINITION_REPRESENTATION(#20,#23);
#8=SHAPE_DEFINITION_REPRESENTATION(#20,#24);
#9=SHAPE_DEFINITION_REPRESENTATION(#20,#25);
#10= (GEOMETRIC_REPRESENTATION_CONTEXT(3)GLOBAL_UNCERTAINTY_ASSIGNED_CONTEXT((#28))GLOBAL_UNIT_ASSIGNED_CONTEXT((#30,#31,#32))REPRESENTATION_CONTEXT('NONE','WORKSPACE'));
#14=STYLED_ITEM('',(#34),#35);
#15=STYLED_ITEM('',(#36),#37);
#16=STYLED_ITEM('',(#38),#39);
#17=APPLICATION_CONTEXT('managed model based 3d engineering');
#18=PRODUCT_CATEGORY('part','NONE');
#19=PRODUCT_RELATED_PRODUCT_CATEGORY('detail',' ',(#40));
#20=PRODUCT_DEFINITION_SHAPE('NONE','NONE',#41);
#21=ADVANCED_BREP_SHAPE_REPRESENTATION('component1|solid1',(#35,#42),#10);
#22=ADVANCED_BREP_SHAPE_REPRESENTATION('component1|solid2',(#37,#43),#10);
#23=ADVANCED_BREP_SHAPE_REPRESENTATION('component1|solid5',(#39,#44),#10);
#24=MANIFOLD_SURFACE_SHAPE_REPRESENTATION('Ports|port1',(#45,#46),#10);
#25=MANIFOLD_SURFACE_SHAPE_REPRESENTATION('Ports|port2',(#47,#48),#10);
#28=UNCERTAINTY_MEASURE_WITH_UNIT(LENGTH_MEASURE(1.0E-06),#30,'','');
#30= (CONVERSION_BASED_UNIT('MILLIMETRE',#51)LENGTH_UNIT()NAMED_UNIT(#54));
#31= (NAMED_UNIT(#56)PLANE_ANGLE_UNIT()SI_UNIT($,.RADIAN.));
#32= (NAMED_UNIT(#56)SOLID_ANGLE_UNIT()SI_UNIT($,.STERADIAN.));
#34=PRESENTATION_STYLE_ASSIGNMENT((#62));
#35=MANIFOLD_SOLID_BREP('component1|solid1',#63);
#36=PRESENTATION_STYLE_ASSIGNMENT((#64));
#37=MANIFOLD_SOLID_BREP('component1|solid2',#65);
#38=PRESENTATION_STYLE_ASSIGNMENT((#66));
#39=MANIFOLD_SOLID_BREP('component1|solid5',#67);
#40=PRODUCT('component1|solid1','','PART--DESC',(#68));
#41=PRODUCT_DEFINITION('','NONE',#69,#2);
#42=AXIS2_PLACEMENT_3D('',#70,#71,#72);
#43=AXIS2_PLACEMENT_3D('',#73,#74,#75);
#44=AXIS2_PLACEMENT_3D('',#76,#77,#78);
#45=SHELL_BASED_SURFACE_MODEL('Ports|port1',(#79));
#46=AXIS2_PLACEMENT_3D('',#80,#81,#82);
#47=SHELL_BASED_SURFACE_MODEL('Ports|port2',(#83));
#48=AXIS2_PLACEMENT_3D('',#84,#85,#86);
#51=LENGTH_MEASURE_WITH_UNIT(LENGTH_MEASURE(1.0),#87);
#54=DIMENSIONAL_EXPONENTS(1.0,0.0,0.0,0.0,0.0,0.0,0.0);
#56=DIMENSIONAL_EXPONENTS(0.0,0.0,0.0,0.0,0.0,0.0,0.0);
#62=SURFACE_STYLE_USAGE(.BOTH.,#88);
#63=CLOSED_SHELL('',(#89,#90,#91,#92,#93,#94,#95,#96,#97,#98));
#64=SURFACE_STYLE_USAGE(.BOTH.,#99);
#65=CLOSED_SHELL('',(#100,#101,#102,#103,#104,#105));
#66=SURFACE_STYLE_USAGE(.BOTH.,#106);
#67=CLOSED_SHELL('',(#107,#108,#109,#110,#111,#112,#113,#114,#115,#116));
#68=PRODUCT_CONTEXT('',#17,'mechanical');
#69=PRODUCT_DEFINITION_FORMATION_WITH_SPECIFIED_SOURCE(' ','NONE',#40,.NOT_KNOWN.);
#70=CARTESIAN_POINT('',(0.0,0.0,0.0));
#71=DIRECTION('',(0.0,0.0,1.0));
#72=DIRECTION('',(1.0,0.0,0.0));
#73=CARTESIAN_POINT('',(0.0,0.0,0.0));
#74=DIRECTION('',(0.0,0.0,1.0));
#75=DIRECTION('',(1.0,0.0,0.0));
#76=CARTESIAN_POINT('',(0.0,0.0,0.0));
#77=DIRECTION('',(0.0,0.0,1.0));
#78=DIRECTION('',(1.0,0.0,0.0));
#79=CLOSED_SHELL('',(#117));
#80=CARTESIAN_POINT('',(0.0,0.0,0.0));
#81=DIRECTION('',(0.0,0.0,1.0));
#82=DIRECTION('',(1.0,0.0,0.0));
#83=CLOSED_SHELL('',(#118));
#84=CARTESIAN_POINT('',(0.0,0.0,0.0));
#85=DIRECTION('',(0.0,0.0,1.0));
#86=DIRECTION('',(1.0,0.0,0.0));
#87= (NAMED_UNIT(#54)LENGTH_UNIT()SI_UNIT(.MILLI.,.METRE.));
#88=SURFACE_SIDE_STYLE('',(#120));
#89=ADVANCED_FACE('',(#121),#122,.T.);
#90=ADVANCED_FACE('',(#123),#124,.T.);
#91=ADVANCED_FACE('',(#125),#126,.T.);
#92=ADVANCED_FACE('',(#127,#128),#129,.T.);
#93=ADVANCED_FACE('',(#130),#131,.T.);
#94=ADVANCED_FACE('',(#132),#133,.T.);
#95=ADVANCED_FACE('',(#134),#135,.T.);
#96=ADVANCED_FACE('',(#136),#137,.T.);
#97=ADVANCED_FACE('',(#138),#139,.T.);
#98=ADVANCED_FACE('',(#140,#141),#142,.T.);
#99=SURFACE_SIDE_STYLE('',(#143));
#100=ADVANCED_FACE('',(#144),#145,.F.);
#101=ADVANCED_FACE('',(#146),#147,.T.);
#102=ADVANCED_FACE('',(#148,#149),#150,.T.);
#103=ADVANCED_FACE('',(#151),#152,.T.);
#104=ADVANCED_FACE('',(#153,#154),#155,.T.);
#105=ADVANCED_FACE('',(#156),#157,.F.);
#106=SURFACE_SIDE_STYLE('',(#158));
#107=ADVANCED_FACE('',(#159),#160,.T.);
#108=ADVANCED_FACE('',(#161),#162,.T.);
#109=ADVANCED_FACE('',(#163),#164,.T.);
#110=ADVANCED_FACE('',(#165),#166,.T.);
#111=ADVANCED_FACE('',(#167),#168,.T.);
#112=ADVANCED_FACE('',(#169,#170),#171,.T.);
#113=ADVANCED_FACE('',(#172),#173,.T.);
#114=ADVANCED_FACE('',(#174,#175),#176,.T.);
#115=ADVANCED_FACE('',(#177),#178,.T.);
#116=ADVANCED_FACE('',(#179),#180,.T.);
#117=FACE_SURFACE('',(#181),#182,.T.);
#118=FACE_SURFACE('',(#183),#184,.T.);
#120=SURFACE_STYLE_FILL_AREA(#185);
#121=FACE_OUTER_BOUND('',#186,.T.);
#122=CYLINDRICAL_SURFACE('',#187,50.0);
#123=FACE_OUTER_BOUND('',#188,.T.);
#124=CYLINDRICAL_SURFACE('',#189,20.0);
#125=FACE_OUTER_BOUND('',#190,.T.);
#126=CYLINDRICAL_SURFACE('',#191,50.0);
#127=FACE_OUTER_BOUND('',#192,.T.);
#128=FACE_BOUND('',#193,.T.);
#129=PLANE('',#194);
#130=FACE_OUTER_BOUND('',#195,.T.);
#131=CYLINDRICAL_SURFACE('',#196,50.0);
#132=FACE_OUTER_BOUND('',#197,.T.);
#133=PLANE('',#198);
#134=FACE_OUTER_BOUND('',#199,.T.);
#135=CYLINDRICAL_SURFACE('',#200,20.0);
#136=FACE_OUTER_BOUND('',#201,.T.);
#137=CYLINDRICAL_SURFACE('',#202,50.0);
#138=FACE_OUTER_BOUND('',#203,.T.);
#139=PLANE('',#204);
#140=FACE_BOUND('',#205,.T.);
#141=FACE_OUTER_BOUND('',#206,.T.);
#142=PLANE('',#207);
#143=SURFACE_STYLE_FILL_AREA(#208);
#144=FACE_OUTER_BOUND('',#209,.T.);
#145=CYLINDRICAL_SURFACE('',#210,20.0);
#146=FACE_OUTER_BOUND('',#211,.T.);
#147=CYLINDRICAL_SURFACE('',#212,50.0);
#148=FACE_OUTER_BOUND('',#213,.T.);
#149=FACE_BOUND('',#214,.T.);
#150=PLANE('',#215);
#151=FACE_OUTER_BOUND('',#216,.T.);
#152=CYLINDRICAL_SURFACE('',#217,50.0);
#153=FACE_BOUND('',#218,.T.);
#154=FACE_OUTER_BOUND('',#219,.T.);
#155=PLANE('',#220);
#156=FACE_OUTER_BOUND('',#221,.T.);
#157=CYLINDRICAL_SURFACE('',#222,20.0);
#158=SURFACE_STYLE_FILL_AREA(#223);
#159=FACE_OUTER_BOUND('',#224,.T.);
#160=CYLINDRICAL_SURFACE('',#225,10.0);
#161=FACE_OUTER_BOUND('',#226,.T.);
#162=CYLINDRICAL_SURFACE('',#227,20.0);
#163=FACE_OUTER_BOUND('',#228,.T.);
#164=CYLINDRICAL_SURFACE('',#229,10.0);
#165=FACE_OUTER_BOUND('',#230,.T.);
#166=CYLINDRICAL_SURFACE('',#231,10.0);
#167=FACE_OUTER_BOUND('',#232,.T.);
#168=PLANE('',#233);
#169=FACE_OUTER_BOUND('',#234,.T.);
#170=FACE_BOUND('',#235,.T.);
#171=PLANE('',#236);
#172=FACE_OUTER_BOUND('',#237,.T.);
#173=CYLINDRICAL_SURFACE('',#238,20.0);
#174=FACE_BOUND('',#239,.T.);
#175=FACE_OUTER_BOUND('',#240,.T.);
#176=PLANE('',#241);
#177=FACE_OUTER_BOUND('',#242,.T.);
#178=CYLINDRICAL_SURFACE('',#243,10.0);
#179=FACE_OUTER_BOUND('',#244,.T.);
#180=PLANE('',#245);
#181=FACE_BOUND('',#246,.T.);
#182=PLANE('',#247);
#183=FACE_BOUND('',#248,.T.);
#184=PLANE('',#249);
#185=FILL_AREA_STYLE('',(#250));
#186=EDGE_LOOP('',(#251,#252,#253,#254));
#187=AXIS2_PLACEMENT_3D('',#255,#256,#257);
#188=EDGE_LOOP('',(#258,#259,#260,#261));
#189=AXIS2_PLACEMENT_3D('',#262,#263,#264);
#190=EDGE_LOOP('',(#265,#266,#267,#268));
#191=AXIS2_PLACEMENT_3D('',#269,#270,#271);
#192=EDGE_LOOP('',(#272,#273));
#193=EDGE_LOOP('',(#274,#275));
#194=AXIS2_PLACEMENT_3D('',#276,#277,#278);
#195=EDGE_LOOP('',(#279,#280,#281,#282));
#196=AXIS2_PLACEMENT_3D('',#283,#284,#285);
#197=EDGE_LOOP('',(#286,#287));
#198=AXIS2_PLACEMENT_3D('',#288,#289,#290);
#199=EDGE_LOOP('',(#291,#292,#293,#294));
#200=AXIS2_PLACEMENT_3D('',#295,#296,#297);
#201=EDGE_LOOP('',(#298,#299,#300,#301));
#202=AXIS2_PLACEMENT_3D('',#302,#303,#304);
#203=EDGE_LOOP('',(#305,#306));
#204=AXIS2_PLACEMENT_3D('',#307,#308,#309);
#205=EDGE_LOOP('',(#310,#311));
#206=EDGE_LOOP('',(#312,#313));
#207=AXIS2_PLACEMENT_3D('',#314,#315,#316);
#208=FILL_AREA_STYLE('',(#317));
#209=EDGE_LOOP('',(#318,#319,#320,#321));
#210=AXIS2_PLACEMENT_3D('',#322,#323,#324);
#211=EDGE_LOOP('',(#325,#326,#327,#328));
#212=AXIS2_PLACEMENT_3D('',#329,#330,#331);
#213=EDGE_LOOP('',(#332,#333));
#214=EDGE_LOOP('',(#334,#335));
#215=AXIS2_PLACEMENT_3D('',#336,#337,#338);
#216=EDGE_LOOP('',(#339,#340,#341,#342));
#217=AXIS2_PLACEMENT_3D('',#343,#344,#345);
#218=EDGE_LOOP('',(#346,#347));
#219=EDGE_LOOP('',(#348,#349));
#220=AXIS2_PLACEMENT_3D('',#350,#351,#352);
#221=EDGE_LOOP('',(#353,#354,#355,#356));
#222=AXIS2_PLACEMENT_3D('',#357,#358,#359);
#223=FILL_AREA_STYLE('',(#360));
#224=EDGE_LOOP('',(#361,#362,#363,#364));
#225=AXIS2_PLACEMENT_3D('',#365,#366,#367);
#226=EDGE_LOOP('',(#368,#369,#370,#371));
#227=AXIS2_PLACEMENT_3D('',#372,#373,#374);
#228=EDGE_LOOP('',(#375,#376,#377,#378));
#229=AXIS2_PLACEMENT_3D('',#379,#380,#381);
#230=EDGE_LOOP('',(#382,#383,#384,#385));
#231=AXIS2_PLACEMENT_3D('',#386,#387,#388);
#232=EDGE_LOOP('',(#389,#390));
#233=AXIS2_PLACEMENT_3D('',#391,#392,#393);
#234=EDGE_LOOP('',(#394,#395));
#235=EDGE_LOOP('',(#396,#397));
#236=AXIS2_PLACEMENT_3D('',#398,#399,#400);
#237=EDGE_LOOP('',(#401,#402,#403,#404));
#238=AXIS2_PLACEMENT_3D('',#405,#406,#407);
#239=EDGE_LOOP('',(#408,#409));
#240=EDGE_LOOP('',(#410,#411));
#241=AXIS2_PLACEMENT_3D('',#412,#413,#414);
#242=EDGE_LOOP('',(#415,#416,#417,#418));
#243=AXIS2_PLACEMENT_3D('',#419,#420,#421);
#244=EDGE_LOOP('',(#422,#423));
#245=AXIS2_PLACEMENT_3D('',#424,#425,#426);
#246=EDGE_LOOP('',(#427,#428,#429,#430));
#247=AXIS2_PLACEMENT_3D('',#431,#432,#433);
#248=EDGE_LOOP('',(#434,#435,#436,#437));
#249=AXIS2_PLACEMENT_3D('',#438,#439,#440);
#250=FILL_AREA_STYLE_COLOUR('',#441);
#251=ORIENTED_EDGE('',*,*,#442,.F.);
#252=ORIENTED_EDGE('',*,*,#443,.F.);
#253=ORIENTED_EDGE('',*,*,#444,.F.);
#254=ORIENTED_EDGE('',*,*,#445,.F.);
#255=CARTESIAN_POINT('',(0.0,25.0,0.0));
#256=DIRECTION('',(-0.0,1.0,0.0));
#257=DIRECTION('',(1.0,0.0,0.0));
#258=ORIENTED_EDGE('',*,*,#446,.F.);
#259=ORIENTED_EDGE('',*,*,#447,.F.);
#260=ORIENTED_EDGE('',*,*,#448,.F.);
#261=ORIENTED_EDGE('',*,*,#449,.F.);
#262=CARTESIAN_POINT('',(0.0,55.0,0.0));
#263=DIRECTION('',(-0.0,1.0,0.0));
#264=DIRECTION('',(1.0,0.0,0.0));
#265=ORIENTED_EDGE('',*,*,#450,.F.);
#266=ORIENTED_EDGE('',*,*,#451,.F.);
#267=ORIENTED_EDGE('',*,*,#452,.F.);
#268=ORIENTED_EDGE('',*,*,#453,.F.);
#269=CARTESIAN_POINT('',(0.0,105.0,0.0));
#270=DIRECTION('',(-0.0,1.0,0.0));
#271=DIRECTION('',(1.0,0.0,0.0));
#272=ORIENTED_EDGE('',*,*,#454,.T.);
#273=ORIENTED_EDGE('',*,*,#451,.T.);
#274=ORIENTED_EDGE('',*,*,#449,.T.);
#275=ORIENTED_EDGE('',*,*,#455,.T.);
#276=CARTESIAN_POINT('',(0.0,60.0,0.0));
#277=DIRECTION('',(0.0,-1.0,0.0));
#278=DIRECTION('',(-1.0,0.0,0.0));
#279=ORIENTED_EDGE('',*,*,#450,.T.);
#280=ORIENTED_EDGE('',*,*,#456,.F.);
#281=ORIENTED_EDGE('',*,*,#452,.T.);
#282=ORIENTED_EDGE('',*,*,#454,.F.);
#283=CARTESIAN_POINT('',(0.0,105.0,0.0));
#284=DIRECTION('',(-0.0,1.0,0.0));
#285=DIRECTION('',(1.0,0.0,0.0));
#286=ORIENTED_EDGE('',*,*,#453,.T.);
#287=ORIENTED_EDGE('',*,*,#456,.T.);
#288=CARTESIAN_POINT('',(0.0,150.0,0.0));
#289=DIRECTION('',(-0.0,1.0,0.0));
#290=DIRECTION('',(1.0,0.0,0.0));
#291=ORIENTED_EDGE('',*,*,#446,.T.);
#292=ORIENTED_EDGE('',*,*,#455,.F.);
#293=ORIENTED_EDGE('',*,*,#448,.T.);
#294=ORIENTED_EDGE('',*,*,#457,.F.);
#295=CARTESIAN_POINT('',(0.0,55.0,0.0));
#296=DIRECTION('',(-0.0,1.0,0.0));
#297=DIRECTION('',(1.0,0.0,0.0));
#298=ORIENTED_EDGE('',*,*,#442,.T.);
#299=ORIENTED_EDGE('',*,*,#458,.F.);
#300=ORIENTED_EDGE('',*,*,#444,.T.);
#301=ORIENTED_EDGE('',*,*,#459,.F.);
#302=CARTESIAN_POINT('',(0.0,25.0,0.0));
#303=DIRECTION('',(-0.0,1.0,0.0));
#304=DIRECTION('',(1.0,0.0,0.0));
#305=ORIENTED_EDGE('',*,*,#459,.T.);
#306=ORIENTED_EDGE('',*,*,#443,.T.);
#307=CARTESIAN_POINT('',(0.0,0.0,0.0));
#308=DIRECTION('',(0.0,-1.0,0.0));
#309=DIRECTION('',(-1.0,0.0,0.0));
#310=ORIENTED_EDGE('',*,*,#457,.T.);
#311=ORIENTED_EDGE('',*,*,#447,.T.);
#312=ORIENTED_EDGE('',*,*,#445,.T.);
#313=ORIENTED_EDGE('',*,*,#458,.T.);
#314=CARTESIAN_POINT('',(0.0,50.0,0.0));
#315=DIRECTION('',(-0.0,1.0,0.0));
#316=DIRECTION('',(1.0,0.0,0.0));
#317=FILL_AREA_STYLE_COLOUR('',#460);
#318=ORIENTED_EDGE('',*,*,#461,.F.);
#319=ORIENTED_EDGE('',*,*,#462,.F.);
#320=ORIENTED_EDGE('',*,*,#463,.F.);
#321=ORIENTED_EDGE('',*,*,#464,.T.);
#322=CARTESIAN_POINT('',(0.0,55.0,0.0));
#323=DIRECTION('',(0.0,1.0,0.0));
#324=DIRECTION('',(0.0,0.0,1.0));
#325=ORIENTED_EDGE('',*,*,#465,.F.);
#326=ORIENTED_EDGE('',*,*,#466,.T.);
#327=ORIENTED_EDGE('',*,*,#467,.F.);
#328=ORIENTED_EDGE('',*,*,#468,.F.);
#329=CARTESIAN_POINT('',(0.0,55.0,0.0));
#330=DIRECTION('',(0.0,1.0,0.0));
#331=DIRECTION('',(0.0,0.0,1.0));
#332=ORIENTED_EDGE('',*,*,#466,.F.);
#333=ORIENTED_EDGE('',*,*,#469,.F.);
#334=ORIENTED_EDGE('',*,*,#470,.T.);
#335=ORIENTED_EDGE('',*,*,#462,.T.);
#336=CARTESIAN_POINT('',(0.0,50.0,35.0));
#337=DIRECTION('',(0.0,-1.0,-0.0));
#338=DIRECTION('',(-0.0,0.0,-1.0));
#339=ORIENTED_EDGE('',*,*,#465,.T.);
#340=ORIENTED_EDGE('',*,*,#471,.F.);
#341=ORIENTED_EDGE('',*,*,#467,.T.);
#342=ORIENTED_EDGE('',*,*,#469,.T.);
#343=CARTESIAN_POINT('',(0.0,55.0,0.0));
#344=DIRECTION('',(0.0,1.0,0.0));
#345=DIRECTION('',(0.0,0.0,1.0));
#346=ORIENTED_EDGE('',*,*,#472,.F.);
#347=ORIENTED_EDGE('',*,*,#464,.F.);
#348=ORIENTED_EDGE('',*,*,#468,.T.);
#349=ORIENTED_EDGE('',*,*,#471,.T.);
#350=CARTESIAN_POINT('',(0.0,60.0,35.0));
#351=DIRECTION('',(0.0,1.0,0.0));
#352=DIRECTION('',(-0.0,-0.0,1.0));
#353=ORIENTED_EDGE('',*,*,#461,.T.);
#354=ORIENTED_EDGE('',*,*,#472,.T.);
#355=ORIENTED_EDGE('',*,*,#463,.T.);
#356=ORIENTED_EDGE('',*,*,#470,.F.);
#357=CARTESIAN_POINT('',(0.0,55.0,0.0));
#358=DIRECTION('',(0.0,1.0,0.0));
#359=DIRECTION('',(0.0,0.0,1.0));
#360=FILL_AREA_STYLE_COLOUR('',#473);
#361=ORIENTED_EDGE('',*,*,#474,.F.);
#362=ORIENTED_EDGE('',*,*,#475,.F.);
#363=ORIENTED_EDGE('',*,*,#476,.F.);
#364=ORIENTED_EDGE('',*,*,#477,.F.);
#365=CARTESIAN_POINT('',(0.0,140.0,0.0));
#366=DIRECTION('',(-0.0,1.0,0.0));
#367=DIRECTION('',(1.0,0.0,0.0));
#368=ORIENTED_EDGE('',*,*,#478,.F.);
#369=ORIENTED_EDGE('',*,*,#479,.F.);
#370=ORIENTED_EDGE('',*,*,#480,.F.);
#371=ORIENTED_EDGE('',*,*,#481,.F.);
#372=CARTESIAN_POINT('',(0.0,80.0,0.0));
#373=DIRECTION('',(-0.0,1.0,0.0));
#374=DIRECTION('',(1.0,0.0,0.0));
#375=ORIENTED_EDGE('',*,*,#482,.F.);
#376=ORIENTED_EDGE('',*,*,#483,.F.);
#377=ORIENTED_EDGE('',*,*,#484,.F.);
#378=ORIENTED_EDGE('',*,*,#485,.F.);
#379=CARTESIAN_POINT('',(0.0,15.0,0.0));
#380=DIRECTION('',(-0.0,1.0,0.0));
#381=DIRECTION('',(1.0,0.0,0.0));
#382=ORIENTED_EDGE('',*,*,#482,.T.);
#383=ORIENTED_EDGE('',*,*,#486,.F.);
#384=ORIENTED_EDGE('',*,*,#484,.T.);
#385=ORIENTED_EDGE('',*,*,#487,.F.);
#386=CARTESIAN_POINT('',(0.0,15.0,0.0));
#387=DIRECTION('',(-0.0,1.0,0.0));
#388=DIRECTION('',(1.0,0.0,0.0));
#389=ORIENTED_EDGE('',*,*,#487,.T.);
#390=ORIENTED_EDGE('',*,*,#483,.T.);
#391=CARTESIAN_POINT('',(0.0,0.0,0.0));
#392=DIRECTION('',(0.0,-1.0,0.0));
#393=DIRECTION('',(-1.0,0.0,0.0));
#394=ORIENTED_EDGE('',*,*,#481,.T.);
#395=ORIENTED_EDGE('',*,*,#488,.T.);
#396=ORIENTED_EDGE('',*,*,#489,.T.);
#397=ORIENTED_EDGE('',*,*,#475,.T.);
#398=CARTESIAN_POINT('',(0.0,130.0,0.0));
#399=DIRECTION('',(-0.0,1.0,0.0));
#400=DIRECTION('',(1.0,0.0,0.0));
#401=ORIENTED_EDGE('',*,*,#478,.T.);
#402=ORIENTED_EDGE('',*,*,#488,.F.);
#403=ORIENTED_EDGE('',*,*,#480,.T.);
#404=ORIENTED_EDGE('',*,*,#490,.F.);
#405=CARTESIAN_POINT('',(0.0,80.0,0.0));
#406=DIRECTION('',(-0.0,1.0,0.0));
#407=DIRECTION('',(1.0,0.0,0.0));
#408=ORIENTED_EDGE('',*,*,#485,.T.);
#409=ORIENTED_EDGE('',*,*,#486,.T.);
#410=ORIENTED_EDGE('',*,*,#490,.T.);
#411=ORIENTED_EDGE('',*,*,#479,.T.);
#412=CARTESIAN_POINT('',(0.0,30.0,0.0));
#413=DIRECTION('',(0.0,-1.0,0.0));
#414=DIRECTION('',(-1.0,0.0,0.0));
#415=ORIENTED_EDGE('',*,*,#474,.T.);
#416=ORIENTED_EDGE('',*,*,#491,.F.);
#417=ORIENTED_EDGE('',*,*,#476,.T.);
#418=ORIENTED_EDGE('',*,*,#489,.F.);
#419=CARTESIAN_POINT('',(0.0,140.0,0.0));
#420=DIRECTION('',(-0.0,1.0,0.0));
#421=DIRECTION('',(1.0,0.0,0.0));
#422=ORIENTED_EDGE('',*,*,#477,.T.);
#423=ORIENTED_EDGE('',*,*,#491,.T.);
#424=CARTESIAN_POINT('',(0.0,150.0,0.0));
#425=DIRECTION('',(-0.0,1.0,0.0));
#426=DIRECTION('',(1.0,0.0,0.0));
#427=ORIENTED_EDGE('',*,*,#492,.T.);
#428=ORIENTED_EDGE('',*,*,#493,.T.);
#429=ORIENTED_EDGE('',*,*,#494,.T.);
#430=ORIENTED_EDGE('',*,*,#495,.T.);
#431=CARTESIAN_POINT('',(-50.0,150.0,-50.0));
#432=DIRECTION('',(0.0,1.0,0.0));
#433=DIRECTION('',(0.0,0.0,1.0));
#434=ORIENTED_EDGE('',*,*,#496,.T.);
#435=ORIENTED_EDGE('',*,*,#497,.T.);
#436=ORIENTED_EDGE('',*,*,#498,.T.);
#437=ORIENTED_EDGE('',*,*,#499,.T.);
#438=CARTESIAN_POINT('',(-50.0,0.0,-50.0));
#439=DIRECTION('',(0.0,1.0,0.0));
#440=DIRECTION('',(0.0,0.0,1.0));
#441=COLOUR_RGB('',0.5,0.800000011920929,1.0);
#442=EDGE_CURVE('',#500,#501,#502,.T.);
#443=EDGE_CURVE('',#503,#500,#504,.T.);
#444=EDGE_CURVE('',#505,#503,#506,.T.);
#445=EDGE_CURVE('',#501,#505,#507,.T.);
#446=EDGE_CURVE('',#508,#509,#510,.T.);
#447=EDGE_CURVE('',#511,#508,#512,.T.);
#448=EDGE_CURVE('',#513,#511,#514,.T.);
#449=EDGE_CURVE('',#509,#513,#515,.T.);
#450=EDGE_CURVE('',#516,#517,#518,.T.);
#451=EDGE_CURVE('',#519,#516,#520,.T.);
#452=EDGE_CURVE('',#521,#519,#522,.T.);
#453=EDGE_CURVE('',#517,#521,#523,.T.);
#454=EDGE_CURVE('',#516,#519,#524,.T.);
#455=EDGE_CURVE('',#513,#509,#525,.T.);
#456=EDGE_CURVE('',#521,#517,#526,.T.);
#457=EDGE_CURVE('',#508,#511,#527,.T.);
#458=EDGE_CURVE('',#505,#501,#528,.T.);
#459=EDGE_CURVE('',#500,#503,#529,.T.);
#460=COLOUR_RGB('',1.0,1.0,0.0);
#461=EDGE_CURVE('',#530,#531,#532,.T.);
#462=EDGE_CURVE('',#533,#530,#534,.T.);
#463=EDGE_CURVE('',#535,#533,#536,.T.);
#464=EDGE_CURVE('',#535,#531,#537,.T.);
#465=EDGE_CURVE('',#538,#539,#540,.T.);
#466=EDGE_CURVE('',#538,#541,#542,.T.);
#467=EDGE_CURVE('',#543,#541,#544,.T.);
#468=EDGE_CURVE('',#539,#543,#545,.T.);
#469=EDGE_CURVE('',#541,#538,#546,.T.);
#470=EDGE_CURVE('',#530,#533,#547,.T.);
#471=EDGE_CURVE('',#543,#539,#548,.T.);
#472=EDGE_CURVE('',#531,#535,#549,.T.);
#473=COLOUR_RGB('',0.800000011920929,0.800000011920929,0.800000011920929);
#474=EDGE_CURVE('',#550,#551,#552,.T.);
#475=EDGE_CURVE('',#553,#550,#554,.T.);
#476=EDGE_CURVE('',#555,#553,#556,.T.);
#477=EDGE_CURVE('',#551,#555,#557,.T.);
#478=EDGE_CURVE('',#558,#559,#560,.T.);
#479=EDGE_CURVE('',#561,#558,#562,.T.);
#480=EDGE_CURVE('',#563,#561,#564,.T.);
#481=EDGE_CURVE('',#559,#563,#565,.T.);
#482=EDGE_CURVE('',#566,#567,#568,.T.);
#483=EDGE_CURVE('',#569,#566,#570,.T.);
#484=EDGE_CURVE('',#571,#569,#572,.T.);
#485=EDGE_CURVE('',#567,#571,#573,.T.);
#486=EDGE_CURVE('',#571,#567,#574,.T.);
#487=EDGE_CURVE('',#566,#569,#575,.T.);
#488=EDGE_CURVE('',#563,#559,#576,.T.);
#489=EDGE_CURVE('',#550,#553,#577,.T.);
#490=EDGE_CURVE('',#558,#561,#578,.T.);
#491=EDGE_CURVE('',#555,#551,#579,.T.);
#492=EDGE_CURVE('',#580,#581,#582,.T.);
#493=EDGE_CURVE('',#581,#583,#584,.T.);
#494=EDGE_CURVE('',#583,#585,#586,.T.);
#495=EDGE_CURVE('',#585,#580,#587,.T.);
#496=EDGE_CURVE('',#588,#589,#590,.T.);
#497=EDGE_CURVE('',#589,#591,#592,.T.);
#498=EDGE_CURVE('',#591,#593,#594,.T.);
#499=EDGE_CURVE('',#593,#588,#595,.T.);
#500=VERTEX_POINT('',#596);
#501=VERTEX_POINT('',#597);
#502=LINE('',#598,#599);
#503=VERTEX_POINT('',#600);
#504=CIRCLE('',#601,50.0);
#505=VERTEX_POINT('',#602);
#506=LINE('',#603,#604);
#507=CIRCLE('',#605,50.0);
#508=VERTEX_POINT('',#606);
#509=VERTEX_POINT('',#607);
#510=LINE('',#608,#609);
#511=VERTEX_POINT('',#610);
#512=CIRCLE('',#611,20.0);
#513=VERTEX_POINT('',#612);
#514=LINE('',#613,#614);
#515=CIRCLE('',#615,20.0);
#516=VERTEX_POINT('',#616);
#517=VERTEX_POINT('',#617);
#518=LINE('',#618,#619);
#519=VERTEX_POINT('',#620);
#520=CIRCLE('',#621,50.0);
#521=VERTEX_POINT('',#622);
#522=LINE('',#623,#624);
#523=CIRCLE('',#625,50.0);
#524=CIRCLE('',#626,50.0);
#525=CIRCLE('',#627,20.0);
#526=CIRCLE('',#628,50.0);
#527=CIRCLE('',#629,20.0);
#528=CIRCLE('',#630,50.0);
#529=CIRCLE('',#631,50.0);
#530=VERTEX_POINT('',#632);
#531=VERTEX_POINT('',#633);
#532=LINE('',#634,#635);
#533=VERTEX_POINT('',#636);
#534=CIRCLE('',#637,20.0);
#535=VERTEX_POINT('',#638);
#536=LINE('',#639,#640);
#537=CIRCLE('',#641,20.0);
#538=VERTEX_POINT('',#642);
#539=VERTEX_POINT('',#643);
#540=LINE('',#644,#645);
#541=VERTEX_POINT('',#646);
#542=CIRCLE('',#647,50.0);
#543=VERTEX_POINT('',#648);
#544=LINE('',#649,#650);
#545=CIRCLE('',#651,50.0);
#546=CIRCLE('',#652,50.0);
#547=CIRCLE('',#653,20.0);
#548=CIRCLE('',#654,50.0);
#549=CIRCLE('',#655,20.0);
#550=VERTEX_POINT('',#656);
#551=VERTEX_POINT('',#657);
#552=LINE('',#658,#659);
#553=VERTEX_POINT('',#660);
#554=CIRCLE('',#661,10.0);
#555=VERTEX_POINT('',#662);
#556=LINE('',#663,#664);
#557=CIRCLE('',#665,10.0);
#558=VERTEX_POINT('',#666);
#559=VERTEX_POINT('',#667);
#560=LINE('',#668,#669);
#561=VERTEX_POINT('',#670);
#562=CIRCLE('',#671,20.0);
#563=VERTEX_POINT('',#672);
#564=LINE('',#673,#674);
#565=CIRCLE('',#675,20.0);
#566=VERTEX_POINT('',#676);
#567=VERTEX_POINT('',#677);
#568=LINE('',#678,#679);
#569=VERTEX_POINT('',#680);
#570=CIRCLE('',#681,10.0);
#571=VERTEX_POINT('',#682);
#572=LINE('',#683,#684);
#573=CIRCLE('',#685,10.0);
#574=CIRCLE('',#686,10.0);
#575=CIRCLE('',#687,10.0);
#576=CIRCLE('',#688,20.0);
#577=CIRCLE('',#689,10.0);
#578=CIRCLE('',#690,20.0);
#579=CIRCLE('',#691,10.0);
#580=VERTEX_POINT('',#692);
#581=VERTEX_POINT('',#693);
#582=LINE('',#694,#695);
#583=VERTEX_POINT('',#696);
#584=LINE('',#697,#698);
#585=VERTEX_POINT('',#699);
#586=LINE('',#700,#701);
#587=LINE('',#702,#703);
#588=VERTEX_POINT('',#704);
#589=VERTEX_POINT('',#705);
#590=LINE('',#706,#707);
#591=VERTEX_POINT('',#708);
#592=LINE('',#709,#710);
#593=VERTEX_POINT('',#711);
#594=LINE('',#712,#713);
#595=LINE('',#714,#715);
#596=CARTESIAN_POINT('',(50.0,0.0,0.0));
#597=CARTESIAN_POINT('',(50.0,50.0,0.0));
#598=CARTESIAN_POINT('',(50.0,25.0,6.12323399573676E-15));
#599=VECTOR('',#716,1.0);
#600=CARTESIAN_POINT('',(-50.0,0.0,-6.12323399573676E-15));
#601=AXIS2_PLACEMENT_3D('',#717,#718,#719);
#602=CARTESIAN_POINT('',(-50.0,50.0,-6.12323399573676E-15));
#603=CARTESIAN_POINT('',(-50.0,25.0,-6.12323399573676E-15));
#604=VECTOR('',#720,1.0);
#605=AXIS2_PLACEMENT_3D('',#721,#722,#723);
#606=CARTESIAN_POINT('',(20.0,50.0,0.0));
#607=CARTESIAN_POINT('',(20.0,60.0,0.0));
#608=CARTESIAN_POINT('',(20.0,55.0,2.44929359829471E-15));
#609=VECTOR('',#724,1.0);
#610=CARTESIAN_POINT('',(-20.0,50.0,-2.44929359829471E-15));
#611=AXIS2_PLACEMENT_3D('',#725,#726,#727);
#612=CARTESIAN_POINT('',(-20.0,60.0,-2.44929359829471E-15));
#613=CARTESIAN_POINT('',(-20.0,55.0,-2.44929359829471E-15));
#614=VECTOR('',#728,1.0);
#615=AXIS2_PLACEMENT_3D('',#729,#730,#731);
#616=CARTESIAN_POINT('',(50.0,60.0,0.0));
#617=CARTESIAN_POINT('',(50.0,150.0,0.0));
#618=CARTESIAN_POINT('',(50.0,105.0,6.12323399573676E-15));
#619=VECTOR('',#732,1.0);
#620=CARTESIAN_POINT('',(-50.0,60.0,-6.12323399573676E-15));
#621=AXIS2_PLACEMENT_3D('',#733,#734,#735);
#622=CARTESIAN_POINT('',(-50.0,150.0,-6.12323399573676E-15));
#623=CARTESIAN_POINT('',(-50.0,105.0,-6.12323399573676E-15));
#624=VECTOR('',#736,1.0);
#625=AXIS2_PLACEMENT_3D('',#737,#738,#739);
#626=AXIS2_PLACEMENT_3D('',#740,#741,#742);
#627=AXIS2_PLACEMENT_3D('',#743,#744,#745);
#628=AXIS2_PLACEMENT_3D('',#746,#747,#748);
#629=AXIS2_PLACEMENT_3D('',#749,#750,#751);
#630=AXIS2_PLACEMENT_3D('',#752,#753,#754);
#631=AXIS2_PLACEMENT_3D('',#755,#756,#757);
#632=CARTESIAN_POINT('',(0.0,50.0,20.0));
#633=CARTESIAN_POINT('',(0.0,60.0,20.0));
#634=CARTESIAN_POINT('',(-2.44929359829471E-15,55.0,20.0));
#635=VECTOR('',#758,1.0);
#636=CARTESIAN_POINT('',(2.44929359829471E-15,50.0,-20.0));
#637=AXIS2_PLACEMENT_3D('',#759,#760,#761);
#638=CARTESIAN_POINT('',(2.44929359829471E-15,60.0,-20.0));
#639=CARTESIAN_POINT('',(2.44929359829471E-15,55.0,-20.0));
#640=VECTOR('',#762,1.0);
#641=AXIS2_PLACEMENT_3D('',#763,#764,#765);
#642=CARTESIAN_POINT('',(0.0,50.0,50.0));
#643=CARTESIAN_POINT('',(0.0,60.0,50.0));
#644=CARTESIAN_POINT('',(-6.12323399573676E-15,55.0,50.0));
#645=VECTOR('',#766,1.0);
#646=CARTESIAN_POINT('',(6.12323399573676E-15,50.0,-50.0));
#647=AXIS2_PLACEMENT_3D('',#767,#768,#769);
#648=CARTESIAN_POINT('',(6.12323399573676E-15,60.0,-50.0));
#649=CARTESIAN_POINT('',(6.12323399573676E-15,55.0,-50.0));
#650=VECTOR('',#770,1.0);
#651=AXIS2_PLACEMENT_3D('',#771,#772,#773);
#652=AXIS2_PLACEMENT_3D('',#774,#775,#776);
#653=AXIS2_PLACEMENT_3D('',#777,#778,#779);
#654=AXIS2_PLACEMENT_3D('',#780,#781,#782);
#655=AXIS2_PLACEMENT_3D('',#783,#784,#785);
#656=CARTESIAN_POINT('',(10.0,130.0,0.0));
#657=CARTESIAN_POINT('',(10.0,150.0,0.0));
#658=CARTESIAN_POINT('',(10.0,140.0,1.22464679914735E-15));
#659=VECTOR('',#786,1.0);
#660=CARTESIAN_POINT('',(-10.0,130.0,-1.22464679914735E-15));
#661=AXIS2_PLACEMENT_3D('',#787,#788,#789);
#662=CARTESIAN_POINT('',(-10.0,150.0,-1.22464679914735E-15));
#663=CARTESIAN_POINT('',(-10.0,140.0,-1.22464679914735E-15));
#664=VECTOR('',#790,1.0);
#665=AXIS2_PLACEMENT_3D('',#791,#792,#793);
#666=CARTESIAN_POINT('',(20.0,30.0,0.0));
#667=CARTESIAN_POINT('',(20.0,130.0,0.0));
#668=CARTESIAN_POINT('',(20.0,80.0,2.44929359829471E-15));
#669=VECTOR('',#794,1.0);
#670=CARTESIAN_POINT('',(-20.0,30.0,-2.44929359829471E-15));
#671=AXIS2_PLACEMENT_3D('',#795,#796,#797);
#672=CARTESIAN_POINT('',(-20.0,130.0,-2.44929359829471E-15));
#673=CARTESIAN_POINT('',(-20.0,80.0,-2.44929359829471E-15));
#674=VECTOR('',#798,1.0);
#675=AXIS2_PLACEMENT_3D('',#799,#800,#801);
#676=CARTESIAN_POINT('',(10.0,0.0,0.0));
#677=CARTESIAN_POINT('',(10.0,30.0,0.0));
#678=CARTESIAN_POINT('',(10.0,15.0,1.22464679914735E-15));
#679=VECTOR('',#802,1.0);
#680=CARTESIAN_POINT('',(-10.0,0.0,-1.22464679914735E-15));
#681=AXIS2_PLACEMENT_3D('',#803,#804,#805);
#682=CARTESIAN_POINT('',(-10.0,30.0,-1.22464679914735E-15));
#683=CARTESIAN_POINT('',(-10.0,15.0,-1.22464679914735E-15));
#684=VECTOR('',#806,1.0);
#685=AXIS2_PLACEMENT_3D('',#807,#808,#809);
#686=AXIS2_PLACEMENT_3D('',#810,#811,#812);
#687=AXIS2_PLACEMENT_3D('',#813,#814,#815);
#688=AXIS2_PLACEMENT_3D('',#816,#817,#818);
#689=AXIS2_PLACEMENT_3D('',#819,#820,#821);
#690=AXIS2_PLACEMENT_3D('',#822,#823,#824);
#691=AXIS2_PLACEMENT_3D('',#825,#826,#827);
#692=CARTESIAN_POINT('',(-50.0,150.0,-50.0));
#693=CARTESIAN_POINT('',(-50.0,150.0,50.0));
#694=CARTESIAN_POINT('',(-50.0,150.0,-50.0));
#695=VECTOR('',#828,1.0);
#696=CARTESIAN_POINT('',(50.0,150.0,50.0));
#697=CARTESIAN_POINT('',(-50.0,150.0,50.0));
#698=VECTOR('',#829,1.0);
#699=CARTESIAN_POINT('',(50.0,150.0,-50.0));
#700=CARTESIAN_POINT('',(50.0,150.0,50.0));
#701=VECTOR('',#830,1.0);
#702=CARTESIAN_POINT('',(50.0,150.0,-50.0));
#703=VECTOR('',#831,1.0);
#704=CARTESIAN_POINT('',(-50.0,0.0,-50.0));
#705=CARTESIAN_POINT('',(-50.0,0.0,50.0));
#706=CARTESIAN_POINT('',(-50.0,0.0,-50.0));
#707=VECTOR('',#832,1.0);
#708=CARTESIAN_POINT('',(50.0,0.0,50.0));
#709=CARTESIAN_POINT('',(-50.0,0.0,50.0));
#710=VECTOR('',#833,1.0);
#711=CARTESIAN_POINT('',(50.0,0.0,-50.0));
#712=CARTESIAN_POINT('',(50.0,0.0,50.0));
#713=VECTOR('',#834,1.0);
#714=CARTESIAN_POINT('',(50.0,0.0,-50.0));
#715=VECTOR('',#835,1.0);
#716=DIRECTION('',(0.0,1.0,0.0));
#717=CARTESIAN_POINT('',(0.0,0.0,0.0));
#718=DIRECTION('',(0.0,-1.0,0.0));
#719=DIRECTION('',(1.0,0.0,0.0));
#720=DIRECTION('',(-0.0,-1.0,-0.0));
#721=CARTESIAN_POINT('',(0.0,50.0,0.0));
#722=DIRECTION('',(-0.0,1.0,0.0));
#723=DIRECTION('',(1.0,0.0,0.0));
#724=DIRECTION('',(0.0,1.0,0.0));
#725=CARTESIAN_POINT('',(0.0,50.0,0.0));
#726=DIRECTION('',(0.0,-1.0,0.0));
#727=DIRECTION('',(1.0,0.0,0.0));
#728=DIRECTION('',(-0.0,-1.0,-0.0));
#729=CARTESIAN_POINT('',(0.0,60.0,0.0));
#730=DIRECTION('',(-0.0,1.0,0.0));
#731=DIRECTION('',(1.0,0.0,0.0));
#732=DIRECTION('',(0.0,1.0,0.0));
#733=CARTESIAN_POINT('',(0.0,60.0,0.0));
#734=DIRECTION('',(0.0,-1.0,0.0));
#735=DIRECTION('',(1.0,0.0,0.0));
#736=DIRECTION('',(-0.0,-1.0,-0.0));
#737=CARTESIAN_POINT('',(0.0,150.0,0.0));
#738=DIRECTION('',(-0.0,1.0,0.0));
#739=DIRECTION('',(1.0,0.0,0.0));
#740=CARTESIAN_POINT('',(0.0,60.0,0.0));
#741=DIRECTION('',(0.0,-1.0,0.0));
#742=DIRECTION('',(1.0,0.0,0.0));
#743=CARTESIAN_POINT('',(0.0,60.0,0.0));
#744=DIRECTION('',(-0.0,1.0,0.0));
#745=DIRECTION('',(1.0,0.0,0.0));
#746=CARTESIAN_POINT('',(0.0,150.0,0.0));
#747=DIRECTION('',(-0.0,1.0,0.0));
#748=DIRECTION('',(1.0,0.0,0.0));
#749=CARTESIAN_POINT('',(0.0,50.0,0.0));
#750=DIRECTION('',(0.0,-1.0,0.0));
#751=DIRECTION('',(1.0,0.0,0.0));
#752=CARTESIAN_POINT('',(0.0,50.0,0.0));
#753=DIRECTION('',(-0.0,1.0,0.0));
#754=DIRECTION('',(1.0,0.0,0.0));
#755=CARTESIAN_POINT('',(0.0,0.0,0.0));
#756=DIRECTION('',(0.0,-1.0,0.0));
#757=DIRECTION('',(1.0,0.0,0.0));
#758=DIRECTION('',(0.0,1.0,-0.0));
#759=CARTESIAN_POINT('',(0.0,50.0,0.0));
#760=DIRECTION('',(0.0,1.0,0.0));
#761=DIRECTION('',(0.0,0.0,1.0));
#762=DIRECTION('',(0.0,-1.0,-0.0));
#763=CARTESIAN_POINT('',(0.0,60.0,0.0));
#764=DIRECTION('',(0.0,1.0,0.0));
#765=DIRECTION('',(0.0,0.0,1.0));
#766=DIRECTION('',(0.0,1.0,0.0));
#767=CARTESIAN_POINT('',(0.0,50.0,0.0));
#768=DIRECTION('',(0.0,1.0,0.0));
#769=DIRECTION('',(0.0,0.0,1.0));
#770=DIRECTION('',(-0.0,-1.0,-0.0));
#771=CARTESIAN_POINT('',(0.0,60.0,0.0));
#772=DIRECTION('',(0.0,1.0,0.0));
#773=DIRECTION('',(0.0,0.0,1.0));
#774=CARTESIAN_POINT('',(0.0,50.0,0.0));
#775=DIRECTION('',(0.0,1.0,0.0));
#776=DIRECTION('',(0.0,0.0,1.0));
#777=CARTESIAN_POINT('',(0.0,50.0,0.0));
#778=DIRECTION('',(0.0,1.0,0.0));
#779=DIRECTION('',(0.0,0.0,1.0));
#780=CARTESIAN_POINT('',(0.0,60.0,0.0));
#781=DIRECTION('',(0.0,1.0,0.0));
#782=DIRECTION('',(0.0,0.0,1.0));
#783=CARTESIAN_POINT('',(0.0,60.0,0.0));
#784=DIRECTION('',(0.0,1.0,0.0));
#785=DIRECTION('',(0.0,0.0,1.0));
#786=DIRECTION('',(0.0,1.0,0.0));
#787=CARTESIAN_POINT('',(0.0,130.0,0.0));
#788=DIRECTION('',(0.0,-1.0,0.0));
#789=DIRECTION('',(1.0,0.0,0.0));
#790=DIRECTION('',(-0.0,-1.0,-0.0));
#791=CARTESIAN_POINT('',(0.0,150.0,0.0));
#792=DIRECTION('',(-0.0,1.0,0.0));
#793=DIRECTION('',(1.0,0.0,0.0));
#794=DIRECTION('',(0.0,1.0,0.0));
#795=CARTESIAN_POINT('',(0.0,30.0,0.0));
#796=DIRECTION('',(0.0,-1.0,0.0));
#797=DIRECTION('',(1.0,0.0,0.0));
#798=DIRECTION('',(-0.0,-1.0,-0.0));
#799=CARTESIAN_POINT('',(0.0,130.0,0.0));
#800=DIRECTION('',(-0.0,1.0,0.0));
#801=DIRECTION('',(1.0,0.0,0.0));
#802=DIRECTION('',(0.0,1.0,0.0));
#803=CARTESIAN_POINT('',(0.0,0.0,0.0));
#804=DIRECTION('',(0.0,-1.0,0.0));
#805=DIRECTION('',(1.0,0.0,0.0));
#806=DIRECTION('',(-0.0,-1.0,-0.0));
#807=CARTESIAN_POINT('',(0.0,30.0,0.0));
#808=DIRECTION('',(-0.0,1.0,0.0));
#809=DIRECTION('',(1.0,0.0,0.0));
#810=CARTESIAN_POINT('',(0.0,30.0,0.0));
#811=DIRECTION('',(-0.0,1.0,0.0));
#812=DIRECTION('',(1.0,0.0,0.0));
#813=CARTESIAN_POINT('',(0.0,0.0,0.0));
#814=DIRECTION('',(0.0,-1.0,0.0));
#815=DIRECTION('',(1.0,0.0,0.0));
#816=CARTESIAN_POINT('',(0.0,130.0,0.0));
#817=DIRECTION('',(-0.0,1.0,0.0));
#818=DIRECTION('',(1.0,0.0,0.0));
#819=CARTESIAN_POINT('',(0.0,130.0,0.0));
#820=DIRECTION('',(0.0,-1.0,0.0));
#821=DIRECTION('',(1.0,0.0,0.0));
#822=CARTESIAN_POINT('',(0.0,30.0,0.0));
#823=DIRECTION('',(0.0,-1.0,0.0));
#824=DIRECTION('',(1.0,0.0,0.0));
#825=CARTESIAN_POINT('',(0.0,150.0,0.0));
#826=DIRECTION('',(-0.0,1.0,0.0));
#827=DIRECTION('',(1.0,0.0,0.0));
#828=DIRECTION('',(0.0,0.0,1.0));
#829=DIRECTION('',(1.0,0.0,0.0));
#830=DIRECTION('',(0.0,0.0,-1.0));
#831=DIRECTION('',(-1.0,0.0,0.0));
#832=DIRECTION('',(0.0,0.0,1.0));
#833=DIRECTION('',(1.0,0.0,0.0));
#834=DIRECTION('',(0.0,0.0,-1.0));
#835=DIRECTION('',(-1.0,0.0,0.0));
#836=PRESENTATION_LAYER_ASSIGNMENT('PEC','PEC',(#39));
#837=PRESENTATION_LAYER_ASSIGNMENT('ceramic','ceramic',(#37));
#838=PRESENTATION_LAYER_ASSIGNMENT('Vacuum','Vacuum',(#35,#45,#47));
ENDSEC;
END-ISO-10303-21;
